<mxfile host="Electron" agent="Mozilla/5.0 (Windows NT 10.0; Win64; x64) AppleWebKit/537.36 (KHTML, like Gecko) draw.io/24.7.17 Chrome/128.0.6613.36 Electron/32.0.1 Safari/537.36" version="24.7.17">
  <diagram name="Page-1" id="LZbsJp-cwjGxEZazi6Dx">
    <mxGraphModel dx="4614" dy="1420" grid="1" gridSize="10" guides="1" tooltips="1" connect="1" arrows="1" fold="1" page="1" pageScale="1" pageWidth="850" pageHeight="1100" math="0" shadow="0">
      <root>
        <mxCell id="0" />
        <mxCell id="1" parent="0" />
        <mxCell id="_c6HYb1iIJkz67qXLCZv-3" value="" style="edgeStyle=orthogonalEdgeStyle;rounded=0;orthogonalLoop=1;jettySize=auto;html=1;" parent="1" source="_c6HYb1iIJkz67qXLCZv-1" target="_c6HYb1iIJkz67qXLCZv-2" edge="1">
          <mxGeometry relative="1" as="geometry" />
        </mxCell>
        <mxCell id="_c6HYb1iIJkz67qXLCZv-1" value="Start" style="ellipse;whiteSpace=wrap;html=1;" parent="1" vertex="1">
          <mxGeometry x="173.75" y="10" width="90" height="60" as="geometry" />
        </mxCell>
        <mxCell id="_c6HYb1iIJkz67qXLCZv-7" value="" style="edgeStyle=orthogonalEdgeStyle;rounded=0;orthogonalLoop=1;jettySize=auto;html=1;" parent="1" source="_c6HYb1iIJkz67qXLCZv-2" target="_c6HYb1iIJkz67qXLCZv-6" edge="1">
          <mxGeometry relative="1" as="geometry" />
        </mxCell>
        <mxCell id="_c6HYb1iIJkz67qXLCZv-2" value="Output&lt;div&gt;Tampilan Awal:&lt;/div&gt;&lt;div&gt;1. Masuk&lt;/div&gt;&lt;div&gt;2. Daftar&lt;/div&gt;&lt;div&gt;3. Keluar&lt;/div&gt;" style="shape=parallelogram;perimeter=parallelogramPerimeter;whiteSpace=wrap;html=1;fixedSize=1;" parent="1" vertex="1">
          <mxGeometry x="140" y="120" width="157.5" height="80" as="geometry" />
        </mxCell>
        <mxCell id="_c6HYb1iIJkz67qXLCZv-13" value="" style="edgeStyle=orthogonalEdgeStyle;rounded=0;orthogonalLoop=1;jettySize=auto;html=1;" parent="1" source="_c6HYb1iIJkz67qXLCZv-6" target="_c6HYb1iIJkz67qXLCZv-12" edge="1">
          <mxGeometry relative="1" as="geometry" />
        </mxCell>
        <mxCell id="_c6HYb1iIJkz67qXLCZv-6" value="Input&lt;div&gt;Pilihan&lt;/div&gt;" style="shape=parallelogram;perimeter=parallelogramPerimeter;whiteSpace=wrap;html=1;fixedSize=1;" parent="1" vertex="1">
          <mxGeometry x="158.75" y="250" width="120" height="60" as="geometry" />
        </mxCell>
        <mxCell id="_c6HYb1iIJkz67qXLCZv-24" value="" style="edgeStyle=orthogonalEdgeStyle;rounded=0;orthogonalLoop=1;jettySize=auto;html=1;" parent="1" source="_c6HYb1iIJkz67qXLCZv-12" target="_c6HYb1iIJkz67qXLCZv-23" edge="1">
          <mxGeometry relative="1" as="geometry" />
        </mxCell>
        <mxCell id="79mNWlb-mYU-TSoA2VN0-2" value="True" style="edgeLabel;html=1;align=center;verticalAlign=middle;resizable=0;points=[];" vertex="1" connectable="0" parent="_c6HYb1iIJkz67qXLCZv-24">
          <mxGeometry x="-0.466" y="2" relative="1" as="geometry">
            <mxPoint x="-1" as="offset" />
          </mxGeometry>
        </mxCell>
        <mxCell id="_c6HYb1iIJkz67qXLCZv-203" value="" style="edgeStyle=orthogonalEdgeStyle;rounded=0;orthogonalLoop=1;jettySize=auto;html=1;" parent="1" source="_c6HYb1iIJkz67qXLCZv-12" target="_c6HYb1iIJkz67qXLCZv-202" edge="1">
          <mxGeometry relative="1" as="geometry" />
        </mxCell>
        <mxCell id="79mNWlb-mYU-TSoA2VN0-1" value="False" style="edgeLabel;html=1;align=center;verticalAlign=middle;resizable=0;points=[];" vertex="1" connectable="0" parent="_c6HYb1iIJkz67qXLCZv-203">
          <mxGeometry x="-0.8481" y="3" relative="1" as="geometry">
            <mxPoint x="-258" y="3" as="offset" />
          </mxGeometry>
        </mxCell>
        <mxCell id="_c6HYb1iIJkz67qXLCZv-12" value="if&lt;div&gt;pilihan == 1&lt;/div&gt;" style="rhombus;whiteSpace=wrap;html=1;" parent="1" vertex="1">
          <mxGeometry x="26.25" y="350" width="103.75" height="80" as="geometry" />
        </mxCell>
        <mxCell id="_c6HYb1iIJkz67qXLCZv-48" value="" style="edgeStyle=orthogonalEdgeStyle;rounded=0;orthogonalLoop=1;jettySize=auto;html=1;" parent="1" source="_c6HYb1iIJkz67qXLCZv-23" target="_c6HYb1iIJkz67qXLCZv-47" edge="1">
          <mxGeometry relative="1" as="geometry" />
        </mxCell>
        <mxCell id="_c6HYb1iIJkz67qXLCZv-23" value="Input&lt;div&gt;Username:&lt;/div&gt;&lt;div&gt;Password:&amp;nbsp;&amp;nbsp;&lt;/div&gt;" style="shape=parallelogram;perimeter=parallelogramPerimeter;whiteSpace=wrap;html=1;fixedSize=1;" parent="1" vertex="1">
          <mxGeometry x="18.124999999999996" y="480" width="120" height="60" as="geometry" />
        </mxCell>
        <mxCell id="_c6HYb1iIJkz67qXLCZv-50" value="" style="edgeStyle=orthogonalEdgeStyle;rounded=0;orthogonalLoop=1;jettySize=auto;html=1;entryX=0.5;entryY=0;entryDx=0;entryDy=0;exitX=0.5;exitY=1;exitDx=0;exitDy=0;" parent="1" source="_c6HYb1iIJkz67qXLCZv-47" target="_c6HYb1iIJkz67qXLCZv-49" edge="1">
          <mxGeometry relative="1" as="geometry" />
        </mxCell>
        <mxCell id="79mNWlb-mYU-TSoA2VN0-3" value="True" style="edgeLabel;html=1;align=center;verticalAlign=middle;resizable=0;points=[];" vertex="1" connectable="0" parent="_c6HYb1iIJkz67qXLCZv-50">
          <mxGeometry x="-0.3333" y="2" relative="1" as="geometry">
            <mxPoint x="-3" as="offset" />
          </mxGeometry>
        </mxCell>
        <mxCell id="wuQFaLoBgomVsM2xNMP--68" style="edgeStyle=orthogonalEdgeStyle;rounded=0;orthogonalLoop=1;jettySize=auto;html=1;exitX=1;exitY=0.5;exitDx=0;exitDy=0;entryX=0.5;entryY=0;entryDx=0;entryDy=0;" parent="1" source="_c6HYb1iIJkz67qXLCZv-47" target="_c6HYb1iIJkz67qXLCZv-153" edge="1">
          <mxGeometry relative="1" as="geometry">
            <mxPoint x="2490.6050000000005" y="580" as="targetPoint" />
            <Array as="points">
              <mxPoint x="2470" y="655" />
            </Array>
          </mxGeometry>
        </mxCell>
        <mxCell id="79mNWlb-mYU-TSoA2VN0-4" value="False" style="edgeLabel;html=1;align=center;verticalAlign=middle;resizable=0;points=[];" vertex="1" connectable="0" parent="wuQFaLoBgomVsM2xNMP--68">
          <mxGeometry x="-0.9688" y="-4" relative="1" as="geometry">
            <mxPoint x="-1" y="-4" as="offset" />
          </mxGeometry>
        </mxCell>
        <mxCell id="_c6HYb1iIJkz67qXLCZv-47" value="if&lt;div&gt;Username == &quot;admin&quot;&lt;/div&gt;&lt;div&gt;Password == admin123&lt;/div&gt;" style="rhombus;whiteSpace=wrap;html=1;" parent="1" vertex="1">
          <mxGeometry x="-24.680000000000007" y="590" width="206.87" height="130" as="geometry" />
        </mxCell>
        <mxCell id="_c6HYb1iIJkz67qXLCZv-49" value="Output&lt;div&gt;Menu Admin&lt;/div&gt;&lt;div&gt;1. Lihat Tiket Tersedia&lt;/div&gt;&lt;div&gt;2. Tambah Tiket&lt;/div&gt;&lt;div&gt;3. Perbarui Informasi Tiket&lt;/div&gt;&lt;div&gt;4. Hapus Tiket&lt;/div&gt;&lt;div&gt;5. Data Pemesanan&lt;/div&gt;&lt;div&gt;6. Exit&lt;/div&gt;" style="shape=parallelogram;perimeter=parallelogramPerimeter;whiteSpace=wrap;html=1;fixedSize=1;" parent="1" vertex="1">
          <mxGeometry x="-36.870000000000005" y="790" width="231.25" height="120" as="geometry" />
        </mxCell>
        <mxCell id="_c6HYb1iIJkz67qXLCZv-61" value="" style="edgeStyle=orthogonalEdgeStyle;rounded=0;orthogonalLoop=1;jettySize=auto;html=1;exitX=0;exitY=0.5;exitDx=0;exitDy=0;entryX=0.5;entryY=0;entryDx=0;entryDy=0;" parent="1" source="_c6HYb1iIJkz67qXLCZv-58" target="_c6HYb1iIJkz67qXLCZv-60" edge="1">
          <mxGeometry relative="1" as="geometry" />
        </mxCell>
        <mxCell id="_c6HYb1iIJkz67qXLCZv-58" value="Input&lt;div&gt;Status&lt;/div&gt;" style="shape=parallelogram;perimeter=parallelogramPerimeter;whiteSpace=wrap;html=1;fixedSize=1;" parent="1" vertex="1">
          <mxGeometry x="10" y="960" width="120" height="60" as="geometry" />
        </mxCell>
        <mxCell id="_c6HYb1iIJkz67qXLCZv-63" value="" style="edgeStyle=orthogonalEdgeStyle;rounded=0;orthogonalLoop=1;jettySize=auto;html=1;entryX=0.5;entryY=0;entryDx=0;entryDy=0;exitX=0.5;exitY=1;exitDx=0;exitDy=0;" parent="1" source="_c6HYb1iIJkz67qXLCZv-60" target="_c6HYb1iIJkz67qXLCZv-122" edge="1">
          <mxGeometry relative="1" as="geometry">
            <mxPoint x="-134.4000000000001" y="1220" as="targetPoint" />
          </mxGeometry>
        </mxCell>
        <mxCell id="79mNWlb-mYU-TSoA2VN0-25" value="True" style="edgeLabel;html=1;align=center;verticalAlign=middle;resizable=0;points=[];" vertex="1" connectable="0" parent="_c6HYb1iIJkz67qXLCZv-63">
          <mxGeometry x="-0.3908" relative="1" as="geometry">
            <mxPoint as="offset" />
          </mxGeometry>
        </mxCell>
        <mxCell id="_c6HYb1iIJkz67qXLCZv-69" value="" style="edgeStyle=orthogonalEdgeStyle;rounded=0;orthogonalLoop=1;jettySize=auto;html=1;exitX=1;exitY=0.5;exitDx=0;exitDy=0;entryX=0.5;entryY=0;entryDx=0;entryDy=0;" parent="1" source="_c6HYb1iIJkz67qXLCZv-60" target="_c6HYb1iIJkz67qXLCZv-68" edge="1">
          <mxGeometry relative="1" as="geometry" />
        </mxCell>
        <mxCell id="79mNWlb-mYU-TSoA2VN0-23" value="Text" style="edgeLabel;html=1;align=center;verticalAlign=middle;resizable=0;points=[];" vertex="1" connectable="0" parent="_c6HYb1iIJkz67qXLCZv-69">
          <mxGeometry x="-1" y="1320" relative="1" as="geometry">
            <mxPoint x="-1318" y="1256" as="offset" />
          </mxGeometry>
        </mxCell>
        <mxCell id="79mNWlb-mYU-TSoA2VN0-24" value="False" style="edgeLabel;html=1;align=center;verticalAlign=middle;resizable=0;points=[];" vertex="1" connectable="0" parent="_c6HYb1iIJkz67qXLCZv-69">
          <mxGeometry x="-0.5453" y="-3" relative="1" as="geometry">
            <mxPoint as="offset" />
          </mxGeometry>
        </mxCell>
        <mxCell id="_c6HYb1iIJkz67qXLCZv-60" value="if&lt;div&gt;status == 1&lt;/div&gt;" style="rhombus;whiteSpace=wrap;html=1;" parent="1" vertex="1">
          <mxGeometry x="-184.37" y="1060" width="101.24" height="80" as="geometry" />
        </mxCell>
        <mxCell id="_c6HYb1iIJkz67qXLCZv-71" value="" style="edgeStyle=orthogonalEdgeStyle;rounded=0;orthogonalLoop=1;jettySize=auto;html=1;entryX=0.047;entryY=0.542;entryDx=0;entryDy=0;exitX=0;exitY=0.5;exitDx=0;exitDy=0;entryPerimeter=0;" parent="1" source="_c6HYb1iIJkz67qXLCZv-122" target="_c6HYb1iIJkz67qXLCZv-49" edge="1">
          <mxGeometry relative="1" as="geometry">
            <mxPoint x="-200" y="1255" as="sourcePoint" />
            <mxPoint x="-46.72000000000011" y="850" as="targetPoint" />
            <Array as="points">
              <mxPoint x="-200" y="1250" />
              <mxPoint x="-200" y="1255" />
              <mxPoint x="-299" y="1255" />
              <mxPoint x="-299" y="850" />
              <mxPoint x="-26" y="850" />
            </Array>
          </mxGeometry>
        </mxCell>
        <mxCell id="_c6HYb1iIJkz67qXLCZv-76" value="" style="edgeStyle=orthogonalEdgeStyle;rounded=0;orthogonalLoop=1;jettySize=auto;html=1;" parent="1" source="_c6HYb1iIJkz67qXLCZv-68" target="_c6HYb1iIJkz67qXLCZv-75" edge="1">
          <mxGeometry relative="1" as="geometry" />
        </mxCell>
        <mxCell id="79mNWlb-mYU-TSoA2VN0-26" value="True" style="edgeLabel;html=1;align=center;verticalAlign=middle;resizable=0;points=[];" vertex="1" connectable="0" parent="_c6HYb1iIJkz67qXLCZv-76">
          <mxGeometry x="-0.2925" relative="1" as="geometry">
            <mxPoint as="offset" />
          </mxGeometry>
        </mxCell>
        <mxCell id="_c6HYb1iIJkz67qXLCZv-108" value="" style="edgeStyle=orthogonalEdgeStyle;rounded=0;orthogonalLoop=1;jettySize=auto;html=1;" parent="1" source="_c6HYb1iIJkz67qXLCZv-68" target="_c6HYb1iIJkz67qXLCZv-107" edge="1">
          <mxGeometry relative="1" as="geometry" />
        </mxCell>
        <mxCell id="79mNWlb-mYU-TSoA2VN0-27" value="False" style="edgeLabel;html=1;align=center;verticalAlign=middle;resizable=0;points=[];" vertex="1" connectable="0" parent="_c6HYb1iIJkz67qXLCZv-108">
          <mxGeometry x="-0.619" y="-2" relative="1" as="geometry">
            <mxPoint as="offset" />
          </mxGeometry>
        </mxCell>
        <mxCell id="_c6HYb1iIJkz67qXLCZv-68" value="&lt;div&gt;Elif&lt;/div&gt;&lt;div&gt;status == 2&lt;/div&gt;" style="rhombus;whiteSpace=wrap;html=1;" parent="1" vertex="1">
          <mxGeometry y="1150" width="101.24" height="80" as="geometry" />
        </mxCell>
        <mxCell id="_c6HYb1iIJkz67qXLCZv-73" value="" style="endArrow=classic;html=1;rounded=0;exitX=0.46;exitY=0.993;exitDx=0;exitDy=0;entryX=0.5;entryY=0;entryDx=0;entryDy=0;exitPerimeter=0;" parent="1" source="_c6HYb1iIJkz67qXLCZv-49" target="_c6HYb1iIJkz67qXLCZv-58" edge="1">
          <mxGeometry width="50" height="50" relative="1" as="geometry">
            <mxPoint x="30" y="1160" as="sourcePoint" />
            <mxPoint x="80" y="1110" as="targetPoint" />
            <Array as="points" />
          </mxGeometry>
        </mxCell>
        <mxCell id="kNvRD4Es3NejU3L5LjWM-4" value="" style="edgeStyle=orthogonalEdgeStyle;rounded=0;orthogonalLoop=1;jettySize=auto;html=1;" parent="1" source="_c6HYb1iIJkz67qXLCZv-75" target="kNvRD4Es3NejU3L5LjWM-3" edge="1">
          <mxGeometry relative="1" as="geometry" />
        </mxCell>
        <mxCell id="_c6HYb1iIJkz67qXLCZv-75" value="Output&lt;div&gt;Tampilkan Tiket Yang Tersedia&lt;/div&gt;" style="shape=parallelogram;perimeter=parallelogramPerimeter;whiteSpace=wrap;html=1;fixedSize=1;" parent="1" vertex="1">
          <mxGeometry x="-24.679999999999993" y="1270" width="149.38" height="60" as="geometry" />
        </mxCell>
        <mxCell id="_c6HYb1iIJkz67qXLCZv-110" value="" style="edgeStyle=orthogonalEdgeStyle;rounded=0;orthogonalLoop=1;jettySize=auto;html=1;entryX=0.5;entryY=0;entryDx=0;entryDy=0;" parent="1" source="_c6HYb1iIJkz67qXLCZv-107" target="_c6HYb1iIJkz67qXLCZv-121" edge="1">
          <mxGeometry relative="1" as="geometry">
            <mxPoint x="276.5999999999999" y="1450" as="targetPoint" />
          </mxGeometry>
        </mxCell>
        <mxCell id="79mNWlb-mYU-TSoA2VN0-28" value="True" style="edgeLabel;html=1;align=center;verticalAlign=middle;resizable=0;points=[];" vertex="1" connectable="0" parent="_c6HYb1iIJkz67qXLCZv-110">
          <mxGeometry x="-0.3703" relative="1" as="geometry">
            <mxPoint as="offset" />
          </mxGeometry>
        </mxCell>
        <mxCell id="_c6HYb1iIJkz67qXLCZv-116" value="" style="edgeStyle=orthogonalEdgeStyle;rounded=0;orthogonalLoop=1;jettySize=auto;html=1;" parent="1" source="_c6HYb1iIJkz67qXLCZv-107" target="_c6HYb1iIJkz67qXLCZv-115" edge="1">
          <mxGeometry relative="1" as="geometry" />
        </mxCell>
        <mxCell id="79mNWlb-mYU-TSoA2VN0-29" value="False" style="edgeLabel;html=1;align=center;verticalAlign=middle;resizable=0;points=[];" vertex="1" connectable="0" parent="_c6HYb1iIJkz67qXLCZv-116">
          <mxGeometry x="-0.9375" y="3" relative="1" as="geometry">
            <mxPoint x="3" y="3" as="offset" />
          </mxGeometry>
        </mxCell>
        <mxCell id="_c6HYb1iIJkz67qXLCZv-107" value="&lt;div&gt;Elif&lt;/div&gt;&lt;div&gt;status == 3&lt;/div&gt;" style="rhombus;whiteSpace=wrap;html=1;" parent="1" vertex="1">
          <mxGeometry x="225.93" y="1250" width="101.24" height="80" as="geometry" />
        </mxCell>
        <mxCell id="_c6HYb1iIJkz67qXLCZv-118" value="" style="edgeStyle=orthogonalEdgeStyle;rounded=0;orthogonalLoop=1;jettySize=auto;html=1;entryX=0.5;entryY=0;entryDx=0;entryDy=0;" parent="1" source="_c6HYb1iIJkz67qXLCZv-115" target="_c6HYb1iIJkz67qXLCZv-119" edge="1">
          <mxGeometry relative="1" as="geometry">
            <mxPoint x="742.0400000000003" y="1560" as="targetPoint" />
          </mxGeometry>
        </mxCell>
        <mxCell id="79mNWlb-mYU-TSoA2VN0-38" value="True" style="edgeLabel;html=1;align=center;verticalAlign=middle;resizable=0;points=[];" vertex="1" connectable="0" parent="_c6HYb1iIJkz67qXLCZv-118">
          <mxGeometry x="-0.2756" y="1" relative="1" as="geometry">
            <mxPoint y="-1" as="offset" />
          </mxGeometry>
        </mxCell>
        <mxCell id="_c6HYb1iIJkz67qXLCZv-128" value="" style="edgeStyle=orthogonalEdgeStyle;rounded=0;orthogonalLoop=1;jettySize=auto;html=1;" parent="1" source="_c6HYb1iIJkz67qXLCZv-115" target="_c6HYb1iIJkz67qXLCZv-127" edge="1">
          <mxGeometry relative="1" as="geometry" />
        </mxCell>
        <mxCell id="79mNWlb-mYU-TSoA2VN0-39" value="False" style="edgeLabel;html=1;align=center;verticalAlign=middle;resizable=0;points=[];" vertex="1" connectable="0" parent="_c6HYb1iIJkz67qXLCZv-128">
          <mxGeometry x="-0.7745" y="3" relative="1" as="geometry">
            <mxPoint as="offset" />
          </mxGeometry>
        </mxCell>
        <mxCell id="_c6HYb1iIJkz67qXLCZv-115" value="&lt;div&gt;Elif&lt;/div&gt;&lt;div&gt;status == 4&lt;/div&gt;" style="rhombus;whiteSpace=wrap;html=1;" parent="1" vertex="1">
          <mxGeometry x="1037.34" y="1460" width="101.24" height="80" as="geometry" />
        </mxCell>
        <mxCell id="_c6HYb1iIJkz67qXLCZv-124" value="" style="edgeStyle=orthogonalEdgeStyle;rounded=0;orthogonalLoop=1;jettySize=auto;html=1;" parent="1" source="_c6HYb1iIJkz67qXLCZv-119" target="_c6HYb1iIJkz67qXLCZv-123" edge="1">
          <mxGeometry relative="1" as="geometry" />
        </mxCell>
        <mxCell id="_c6HYb1iIJkz67qXLCZv-119" value="Output&lt;div&gt;Tampilkan Tiket Yang Tersedia&lt;/div&gt;" style="shape=parallelogram;perimeter=parallelogramPerimeter;whiteSpace=wrap;html=1;fixedSize=1;" parent="1" vertex="1">
          <mxGeometry x="1013.2700000000001" y="1610" width="149.38" height="60" as="geometry" />
        </mxCell>
        <mxCell id="wuQFaLoBgomVsM2xNMP--38" style="edgeStyle=orthogonalEdgeStyle;rounded=0;orthogonalLoop=1;jettySize=auto;html=1;exitX=0.5;exitY=1;exitDx=0;exitDy=0;entryX=0.5;entryY=0;entryDx=0;entryDy=0;" parent="1" source="_c6HYb1iIJkz67qXLCZv-121" target="wuQFaLoBgomVsM2xNMP--37" edge="1">
          <mxGeometry relative="1" as="geometry" />
        </mxCell>
        <mxCell id="_c6HYb1iIJkz67qXLCZv-121" value="Output&lt;div&gt;Tampilkan Tiket Yang Tersedia&lt;/div&gt;" style="shape=parallelogram;perimeter=parallelogramPerimeter;whiteSpace=wrap;html=1;fixedSize=1;" parent="1" vertex="1">
          <mxGeometry x="201.88" y="1370" width="149.38" height="60" as="geometry" />
        </mxCell>
        <mxCell id="_c6HYb1iIJkz67qXLCZv-122" value="Output&lt;div&gt;Tampilkan Tiket Yang Tersedia&lt;/div&gt;" style="shape=parallelogram;perimeter=parallelogramPerimeter;whiteSpace=wrap;html=1;fixedSize=1;" parent="1" vertex="1">
          <mxGeometry x="-208.44" y="1220" width="149.38" height="60" as="geometry" />
        </mxCell>
        <mxCell id="wuQFaLoBgomVsM2xNMP--44" value="" style="edgeStyle=orthogonalEdgeStyle;rounded=0;orthogonalLoop=1;jettySize=auto;html=1;" parent="1" source="_c6HYb1iIJkz67qXLCZv-123" target="wuQFaLoBgomVsM2xNMP--43" edge="1">
          <mxGeometry relative="1" as="geometry" />
        </mxCell>
        <mxCell id="_c6HYb1iIJkz67qXLCZv-123" value="Input&lt;div&gt;ID tiket yang ingin di hapus:&lt;/div&gt;" style="shape=parallelogram;perimeter=parallelogramPerimeter;whiteSpace=wrap;html=1;fixedSize=1;" parent="1" vertex="1">
          <mxGeometry x="995.9200000000002" y="1780" width="184.07" height="60" as="geometry" />
        </mxCell>
        <mxCell id="_c6HYb1iIJkz67qXLCZv-130" value="" style="edgeStyle=orthogonalEdgeStyle;rounded=0;orthogonalLoop=1;jettySize=auto;html=1;" parent="1" source="_c6HYb1iIJkz67qXLCZv-127" target="_c6HYb1iIJkz67qXLCZv-129" edge="1">
          <mxGeometry relative="1" as="geometry" />
        </mxCell>
        <mxCell id="79mNWlb-mYU-TSoA2VN0-41" value="True" style="edgeLabel;html=1;align=center;verticalAlign=middle;resizable=0;points=[];" vertex="1" connectable="0" parent="_c6HYb1iIJkz67qXLCZv-130">
          <mxGeometry x="-0.6926" y="2" relative="1" as="geometry">
            <mxPoint y="-1" as="offset" />
          </mxGeometry>
        </mxCell>
        <mxCell id="_c6HYb1iIJkz67qXLCZv-134" value="" style="edgeStyle=orthogonalEdgeStyle;rounded=0;orthogonalLoop=1;jettySize=auto;html=1;" parent="1" source="_c6HYb1iIJkz67qXLCZv-127" target="_c6HYb1iIJkz67qXLCZv-133" edge="1">
          <mxGeometry relative="1" as="geometry" />
        </mxCell>
        <mxCell id="79mNWlb-mYU-TSoA2VN0-40" value="False" style="edgeLabel;html=1;align=center;verticalAlign=middle;resizable=0;points=[];" vertex="1" connectable="0" parent="_c6HYb1iIJkz67qXLCZv-134">
          <mxGeometry x="-0.6043" y="-3" relative="1" as="geometry">
            <mxPoint x="-1" as="offset" />
          </mxGeometry>
        </mxCell>
        <mxCell id="_c6HYb1iIJkz67qXLCZv-127" value="&lt;div&gt;Elif&lt;/div&gt;&lt;div&gt;status == 5&lt;/div&gt;" style="rhombus;whiteSpace=wrap;html=1;" parent="1" vertex="1">
          <mxGeometry x="1500" y="1550" width="101.24" height="80" as="geometry" />
        </mxCell>
        <mxCell id="_c6HYb1iIJkz67qXLCZv-132" value="" style="edgeStyle=orthogonalEdgeStyle;rounded=0;orthogonalLoop=1;jettySize=auto;html=1;entryX=0;entryY=0.5;entryDx=0;entryDy=0;" parent="1" source="_c6HYb1iIJkz67qXLCZv-129" target="_c6HYb1iIJkz67qXLCZv-49" edge="1">
          <mxGeometry relative="1" as="geometry">
            <mxPoint x="-310" y="2240" as="targetPoint" />
            <Array as="points">
              <mxPoint x="1551" y="2400" />
              <mxPoint x="-300" y="2400" />
              <mxPoint x="-300" y="850" />
            </Array>
          </mxGeometry>
        </mxCell>
        <mxCell id="_c6HYb1iIJkz67qXLCZv-129" value="Output&lt;div&gt;Tampilkan Data Pembelian&lt;/div&gt;" style="shape=parallelogram;perimeter=parallelogramPerimeter;whiteSpace=wrap;html=1;fixedSize=1;" parent="1" vertex="1">
          <mxGeometry x="1455.93" y="1860" width="189.38" height="60" as="geometry" />
        </mxCell>
        <mxCell id="_c6HYb1iIJkz67qXLCZv-136" value="" style="edgeStyle=orthogonalEdgeStyle;rounded=0;orthogonalLoop=1;jettySize=auto;html=1;entryX=0;entryY=0.5;entryDx=0;entryDy=0;" parent="1" source="_c6HYb1iIJkz67qXLCZv-133" target="_c6HYb1iIJkz67qXLCZv-49" edge="1">
          <mxGeometry relative="1" as="geometry">
            <mxPoint x="1730.636363636363" y="1890" as="targetPoint" />
            <Array as="points">
              <mxPoint x="1730" y="2400" />
              <mxPoint x="-300" y="2400" />
              <mxPoint x="-300" y="850" />
            </Array>
          </mxGeometry>
        </mxCell>
        <mxCell id="79mNWlb-mYU-TSoA2VN0-43" value="True" style="edgeLabel;html=1;align=center;verticalAlign=middle;resizable=0;points=[];" vertex="1" connectable="0" parent="_c6HYb1iIJkz67qXLCZv-136">
          <mxGeometry x="-0.9843" y="-4" relative="1" as="geometry">
            <mxPoint y="-1" as="offset" />
          </mxGeometry>
        </mxCell>
        <mxCell id="_c6HYb1iIJkz67qXLCZv-146" value="" style="edgeStyle=orthogonalEdgeStyle;rounded=0;orthogonalLoop=1;jettySize=auto;html=1;" parent="1" source="_c6HYb1iIJkz67qXLCZv-133" target="_c6HYb1iIJkz67qXLCZv-145" edge="1">
          <mxGeometry relative="1" as="geometry" />
        </mxCell>
        <mxCell id="79mNWlb-mYU-TSoA2VN0-42" value="False" style="edgeLabel;html=1;align=center;verticalAlign=middle;resizable=0;points=[];" vertex="1" connectable="0" parent="_c6HYb1iIJkz67qXLCZv-146">
          <mxGeometry x="-0.5928" y="1" relative="1" as="geometry">
            <mxPoint x="-1" as="offset" />
          </mxGeometry>
        </mxCell>
        <mxCell id="_c6HYb1iIJkz67qXLCZv-133" value="&lt;div&gt;Elif&lt;/div&gt;&lt;div&gt;status == 6&lt;/div&gt;" style="rhombus;whiteSpace=wrap;html=1;" parent="1" vertex="1">
          <mxGeometry x="1680" y="1670" width="101.24" height="80" as="geometry" />
        </mxCell>
        <mxCell id="_c6HYb1iIJkz67qXLCZv-148" value="" style="edgeStyle=orthogonalEdgeStyle;rounded=0;orthogonalLoop=1;jettySize=auto;html=1;" parent="1" source="_c6HYb1iIJkz67qXLCZv-145" target="_c6HYb1iIJkz67qXLCZv-147" edge="1">
          <mxGeometry relative="1" as="geometry" />
        </mxCell>
        <mxCell id="79mNWlb-mYU-TSoA2VN0-44" value="True" style="edgeLabel;html=1;align=center;verticalAlign=middle;resizable=0;points=[];" vertex="1" connectable="0" parent="_c6HYb1iIJkz67qXLCZv-148">
          <mxGeometry x="-0.5676" y="-1" relative="1" as="geometry">
            <mxPoint y="-1" as="offset" />
          </mxGeometry>
        </mxCell>
        <mxCell id="_c6HYb1iIJkz67qXLCZv-145" value="&lt;div&gt;Else&lt;/div&gt;" style="rhombus;whiteSpace=wrap;html=1;" parent="1" vertex="1">
          <mxGeometry x="1874.0700000000002" y="1760" width="101.24" height="80" as="geometry" />
        </mxCell>
        <mxCell id="wuQFaLoBgomVsM2xNMP--61" style="edgeStyle=orthogonalEdgeStyle;rounded=0;orthogonalLoop=1;jettySize=auto;html=1;entryX=0;entryY=0.5;entryDx=0;entryDy=0;" parent="1" source="_c6HYb1iIJkz67qXLCZv-147" target="_c6HYb1iIJkz67qXLCZv-49" edge="1">
          <mxGeometry relative="1" as="geometry">
            <mxPoint x="1924.6899999999996" y="2400" as="targetPoint" />
            <Array as="points">
              <mxPoint x="1925" y="2400" />
              <mxPoint x="-300" y="2400" />
              <mxPoint x="-300" y="850" />
            </Array>
          </mxGeometry>
        </mxCell>
        <mxCell id="_c6HYb1iIJkz67qXLCZv-147" value="&lt;span style=&quot;background-color: initial; white-space: pre;&quot;&gt;Output&lt;/span&gt;&lt;div&gt;Input Tidak Valid, Silahkan Coba Lagi.&lt;/div&gt;" style="shape=parallelogram;perimeter=parallelogramPerimeter;whiteSpace=wrap;html=1;fixedSize=1;" parent="1" vertex="1">
          <mxGeometry x="1840" y="2050" width="169.38" height="70" as="geometry" />
        </mxCell>
        <mxCell id="wuQFaLoBgomVsM2xNMP--78" style="edgeStyle=orthogonalEdgeStyle;rounded=0;orthogonalLoop=1;jettySize=auto;html=1;exitX=1;exitY=0.5;exitDx=0;exitDy=0;entryX=0;entryY=0.5;entryDx=0;entryDy=0;" parent="1" source="_c6HYb1iIJkz67qXLCZv-153" target="_c6HYb1iIJkz67qXLCZv-2" edge="1">
          <mxGeometry relative="1" as="geometry">
            <mxPoint x="3600" y="2780" as="targetPoint" />
            <Array as="points">
              <mxPoint x="3780" y="850" />
              <mxPoint x="3780" y="2570" />
              <mxPoint x="-430" y="2570" />
              <mxPoint x="-430" y="160" />
            </Array>
          </mxGeometry>
        </mxCell>
        <mxCell id="_c6HYb1iIJkz67qXLCZv-153" value="Output&lt;div&gt;Menu Pengguna&lt;/div&gt;&lt;div&gt;1. Lihat Tiket Tersedia&lt;/div&gt;&lt;div&gt;2. Booking Tiket&lt;/div&gt;&lt;div&gt;3. Tiket Yang Dibeli&lt;/div&gt;&lt;div&gt;4. Batalkan Tiket&lt;/div&gt;&lt;div&gt;5. Exit&lt;/div&gt;" style="shape=parallelogram;perimeter=parallelogramPerimeter;whiteSpace=wrap;html=1;fixedSize=1;" parent="1" vertex="1">
          <mxGeometry x="2354.99" y="790" width="231.25" height="120" as="geometry" />
        </mxCell>
        <mxCell id="_c6HYb1iIJkz67qXLCZv-154" value="" style="edgeStyle=orthogonalEdgeStyle;rounded=0;orthogonalLoop=1;jettySize=auto;html=1;exitX=0.5;exitY=1;exitDx=0;exitDy=0;entryX=0.5;entryY=0;entryDx=0;entryDy=0;" parent="1" source="_c6HYb1iIJkz67qXLCZv-155" target="_c6HYb1iIJkz67qXLCZv-158" edge="1">
          <mxGeometry relative="1" as="geometry" />
        </mxCell>
        <mxCell id="_c6HYb1iIJkz67qXLCZv-155" value="Input&lt;div&gt;Status&lt;/div&gt;" style="shape=parallelogram;perimeter=parallelogramPerimeter;whiteSpace=wrap;html=1;fixedSize=1;" parent="1" vertex="1">
          <mxGeometry x="2410.62" y="970.0000000000001" width="120" height="60" as="geometry" />
        </mxCell>
        <mxCell id="_c6HYb1iIJkz67qXLCZv-156" value="" style="edgeStyle=orthogonalEdgeStyle;rounded=0;orthogonalLoop=1;jettySize=auto;html=1;entryX=0.5;entryY=0;entryDx=0;entryDy=0;exitX=0.5;exitY=1;exitDx=0;exitDy=0;" parent="1" source="_c6HYb1iIJkz67qXLCZv-158" target="_c6HYb1iIJkz67qXLCZv-178" edge="1">
          <mxGeometry relative="1" as="geometry">
            <mxPoint x="1935.6" y="1270" as="targetPoint" />
            <Array as="points">
              <mxPoint x="2470" y="1200" />
              <mxPoint x="2470" y="1200" />
            </Array>
          </mxGeometry>
        </mxCell>
        <mxCell id="79mNWlb-mYU-TSoA2VN0-5" value="True" style="edgeLabel;html=1;align=center;verticalAlign=middle;resizable=0;points=[];" vertex="1" connectable="0" parent="_c6HYb1iIJkz67qXLCZv-156">
          <mxGeometry x="-0.1967" y="2" relative="1" as="geometry">
            <mxPoint x="-2" as="offset" />
          </mxGeometry>
        </mxCell>
        <mxCell id="_c6HYb1iIJkz67qXLCZv-157" value="" style="edgeStyle=orthogonalEdgeStyle;rounded=0;orthogonalLoop=1;jettySize=auto;html=1;" parent="1" source="_c6HYb1iIJkz67qXLCZv-158" target="_c6HYb1iIJkz67qXLCZv-161" edge="1">
          <mxGeometry relative="1" as="geometry" />
        </mxCell>
        <mxCell id="79mNWlb-mYU-TSoA2VN0-6" value="False" style="edgeLabel;html=1;align=center;verticalAlign=middle;resizable=0;points=[];" vertex="1" connectable="0" parent="_c6HYb1iIJkz67qXLCZv-157">
          <mxGeometry x="-0.5304" relative="1" as="geometry">
            <mxPoint as="offset" />
          </mxGeometry>
        </mxCell>
        <mxCell id="_c6HYb1iIJkz67qXLCZv-158" value="if&lt;div&gt;status == 1&lt;/div&gt;" style="rhombus;whiteSpace=wrap;html=1;" parent="1" vertex="1">
          <mxGeometry x="2420" y="1100" width="101.24" height="80" as="geometry" />
        </mxCell>
        <mxCell id="_c6HYb1iIJkz67qXLCZv-159" value="" style="edgeStyle=orthogonalEdgeStyle;rounded=0;orthogonalLoop=1;jettySize=auto;html=1;exitX=0.5;exitY=1;exitDx=0;exitDy=0;" parent="1" source="_c6HYb1iIJkz67qXLCZv-161" target="_c6HYb1iIJkz67qXLCZv-163" edge="1">
          <mxGeometry relative="1" as="geometry" />
        </mxCell>
        <mxCell id="79mNWlb-mYU-TSoA2VN0-7" value="True" style="edgeLabel;html=1;align=center;verticalAlign=middle;resizable=0;points=[];" vertex="1" connectable="0" parent="_c6HYb1iIJkz67qXLCZv-159">
          <mxGeometry x="-0.2691" y="-1" relative="1" as="geometry">
            <mxPoint as="offset" />
          </mxGeometry>
        </mxCell>
        <mxCell id="_c6HYb1iIJkz67qXLCZv-160" value="" style="edgeStyle=orthogonalEdgeStyle;rounded=0;orthogonalLoop=1;jettySize=auto;html=1;" parent="1" source="_c6HYb1iIJkz67qXLCZv-161" target="_c6HYb1iIJkz67qXLCZv-168" edge="1">
          <mxGeometry relative="1" as="geometry" />
        </mxCell>
        <mxCell id="79mNWlb-mYU-TSoA2VN0-8" value="False" style="edgeLabel;html=1;align=center;verticalAlign=middle;resizable=0;points=[];" vertex="1" connectable="0" parent="_c6HYb1iIJkz67qXLCZv-160">
          <mxGeometry x="-0.2551" y="-3" relative="1" as="geometry">
            <mxPoint x="-54" y="-3" as="offset" />
          </mxGeometry>
        </mxCell>
        <mxCell id="_c6HYb1iIJkz67qXLCZv-161" value="&lt;div&gt;Elif&lt;/div&gt;&lt;div&gt;status == 2&lt;/div&gt;" style="rhombus;whiteSpace=wrap;html=1;" parent="1" vertex="1">
          <mxGeometry x="2650" y="1260" width="101.24" height="80" as="geometry" />
        </mxCell>
        <mxCell id="_c6HYb1iIJkz67qXLCZv-162" value="" style="edgeStyle=orthogonalEdgeStyle;rounded=0;orthogonalLoop=1;jettySize=auto;html=1;" parent="1" source="_c6HYb1iIJkz67qXLCZv-163" target="_c6HYb1iIJkz67qXLCZv-165" edge="1">
          <mxGeometry relative="1" as="geometry" />
        </mxCell>
        <mxCell id="_c6HYb1iIJkz67qXLCZv-163" value="Output&lt;div&gt;Tampilkan Tiket Yang Tersedia&lt;/div&gt;" style="shape=parallelogram;perimeter=parallelogramPerimeter;whiteSpace=wrap;html=1;fixedSize=1;" parent="1" vertex="1">
          <mxGeometry x="2625.9300000000003" y="1410" width="149.38" height="60" as="geometry" />
        </mxCell>
        <mxCell id="_c6HYb1iIJkz67qXLCZv-164" value="" style="edgeStyle=orthogonalEdgeStyle;rounded=0;orthogonalLoop=1;jettySize=auto;html=1;entryX=0;entryY=0.5;entryDx=0;entryDy=0;exitX=0;exitY=0.5;exitDx=0;exitDy=0;" parent="1" source="_c6HYb1iIJkz67qXLCZv-165" target="_c6HYb1iIJkz67qXLCZv-153" edge="1">
          <mxGeometry relative="1" as="geometry">
            <mxPoint x="2130" y="1440" as="targetPoint" />
            <Array as="points">
              <mxPoint x="2130" y="1575" />
              <mxPoint x="2130" y="850.0000000000001" />
            </Array>
          </mxGeometry>
        </mxCell>
        <mxCell id="_c6HYb1iIJkz67qXLCZv-165" value="Input&lt;div&gt;Pilih ID tiket yang ingin di beli:&lt;/div&gt;&lt;div&gt;Jumlah Tiket Yang ingin di beli:&amp;nbsp;&lt;/div&gt;" style="shape=parallelogram;perimeter=parallelogramPerimeter;whiteSpace=wrap;html=1;fixedSize=1;" parent="1" vertex="1">
          <mxGeometry x="2597.26" y="1540" width="206.72" height="70" as="geometry" />
        </mxCell>
        <mxCell id="_c6HYb1iIJkz67qXLCZv-166" value="" style="edgeStyle=orthogonalEdgeStyle;rounded=0;orthogonalLoop=1;jettySize=auto;html=1;entryX=0.5;entryY=0;entryDx=0;entryDy=0;exitX=0.5;exitY=1;exitDx=0;exitDy=0;" parent="1" source="_c6HYb1iIJkz67qXLCZv-168" target="_c6HYb1iIJkz67qXLCZv-177" edge="1">
          <mxGeometry relative="1" as="geometry">
            <mxPoint x="2346.6" y="1500" as="targetPoint" />
          </mxGeometry>
        </mxCell>
        <mxCell id="79mNWlb-mYU-TSoA2VN0-9" value="True" style="edgeLabel;html=1;align=center;verticalAlign=middle;resizable=0;points=[];" vertex="1" connectable="0" parent="_c6HYb1iIJkz67qXLCZv-166">
          <mxGeometry x="-0.6606" relative="1" as="geometry">
            <mxPoint as="offset" />
          </mxGeometry>
        </mxCell>
        <mxCell id="_c6HYb1iIJkz67qXLCZv-167" value="" style="edgeStyle=orthogonalEdgeStyle;rounded=0;orthogonalLoop=1;jettySize=auto;html=1;" parent="1" source="_c6HYb1iIJkz67qXLCZv-168" target="_c6HYb1iIJkz67qXLCZv-174" edge="1">
          <mxGeometry relative="1" as="geometry" />
        </mxCell>
        <mxCell id="79mNWlb-mYU-TSoA2VN0-10" value="False" style="edgeLabel;html=1;align=center;verticalAlign=middle;resizable=0;points=[];" vertex="1" connectable="0" parent="_c6HYb1iIJkz67qXLCZv-167">
          <mxGeometry x="-0.5664" relative="1" as="geometry">
            <mxPoint as="offset" />
          </mxGeometry>
        </mxCell>
        <mxCell id="_c6HYb1iIJkz67qXLCZv-168" value="&lt;div&gt;Elif&lt;/div&gt;&lt;div&gt;status == 3&lt;/div&gt;" style="rhombus;whiteSpace=wrap;html=1;" parent="1" vertex="1">
          <mxGeometry x="2890.0000000000005" y="1360" width="101.24" height="80" as="geometry" />
        </mxCell>
        <mxCell id="_c6HYb1iIJkz67qXLCZv-170" value="" style="edgeStyle=orthogonalEdgeStyle;rounded=0;orthogonalLoop=1;jettySize=auto;html=1;exitX=0.5;exitY=1;exitDx=0;exitDy=0;entryX=0;entryY=0.5;entryDx=0;entryDy=0;" parent="1" source="_c6HYb1iIJkz67qXLCZv-177" target="_c6HYb1iIJkz67qXLCZv-153" edge="1">
          <mxGeometry relative="1" as="geometry">
            <mxPoint x="2130" y="1660" as="targetPoint" />
            <mxPoint x="2247.6499999999996" y="1689.43" as="sourcePoint" />
            <Array as="points">
              <mxPoint x="2941" y="1840" />
              <mxPoint x="2130" y="1840" />
              <mxPoint x="2130" y="850.0000000000001" />
            </Array>
          </mxGeometry>
        </mxCell>
        <mxCell id="_c6HYb1iIJkz67qXLCZv-172" value="" style="edgeStyle=orthogonalEdgeStyle;rounded=0;orthogonalLoop=1;jettySize=auto;html=1;entryX=0.503;entryY=0.047;entryDx=0;entryDy=0;entryPerimeter=0;exitX=0.5;exitY=1;exitDx=0;exitDy=0;" parent="1" source="_c6HYb1iIJkz67qXLCZv-174" target="_c6HYb1iIJkz67qXLCZv-199" edge="1">
          <mxGeometry relative="1" as="geometry">
            <mxPoint x="2590" y="1610" as="targetPoint" />
          </mxGeometry>
        </mxCell>
        <mxCell id="79mNWlb-mYU-TSoA2VN0-11" value="True" style="edgeLabel;html=1;align=center;verticalAlign=middle;resizable=0;points=[];" vertex="1" connectable="0" parent="_c6HYb1iIJkz67qXLCZv-172">
          <mxGeometry x="-0.639" y="-1" relative="1" as="geometry">
            <mxPoint as="offset" />
          </mxGeometry>
        </mxCell>
        <mxCell id="_c6HYb1iIJkz67qXLCZv-173" value="" style="edgeStyle=orthogonalEdgeStyle;rounded=0;orthogonalLoop=1;jettySize=auto;html=1;" parent="1" source="_c6HYb1iIJkz67qXLCZv-174" target="_c6HYb1iIJkz67qXLCZv-183" edge="1">
          <mxGeometry relative="1" as="geometry" />
        </mxCell>
        <mxCell id="79mNWlb-mYU-TSoA2VN0-12" value="False" style="edgeLabel;html=1;align=center;verticalAlign=middle;resizable=0;points=[];" vertex="1" connectable="0" parent="_c6HYb1iIJkz67qXLCZv-173">
          <mxGeometry x="-0.6853" y="-1" relative="1" as="geometry">
            <mxPoint as="offset" />
          </mxGeometry>
        </mxCell>
        <mxCell id="_c6HYb1iIJkz67qXLCZv-174" value="&lt;div&gt;Elif&lt;/div&gt;&lt;div&gt;status == 4&lt;/div&gt;" style="rhombus;whiteSpace=wrap;html=1;" parent="1" vertex="1">
          <mxGeometry x="3090" y="1490" width="101.24" height="80" as="geometry" />
        </mxCell>
        <mxCell id="_c6HYb1iIJkz67qXLCZv-175" value="" style="edgeStyle=orthogonalEdgeStyle;rounded=0;orthogonalLoop=1;jettySize=auto;html=1;exitX=0.5;exitY=1;exitDx=0;exitDy=0;" parent="1" source="_c6HYb1iIJkz67qXLCZv-199" target="_c6HYb1iIJkz67qXLCZv-180" edge="1">
          <mxGeometry relative="1" as="geometry">
            <mxPoint x="2640" y="1710" as="sourcePoint" />
          </mxGeometry>
        </mxCell>
        <mxCell id="_c6HYb1iIJkz67qXLCZv-177" value="Output&lt;div&gt;Tampilkan Tiket Yang Sudah Dibeli&lt;/div&gt;" style="shape=parallelogram;perimeter=parallelogramPerimeter;whiteSpace=wrap;html=1;fixedSize=1;" parent="1" vertex="1">
          <mxGeometry x="2865.93" y="1550" width="149.38" height="60" as="geometry" />
        </mxCell>
        <mxCell id="wuQFaLoBgomVsM2xNMP--2" style="edgeStyle=orthogonalEdgeStyle;rounded=0;orthogonalLoop=1;jettySize=auto;html=1;exitX=0;exitY=0.5;exitDx=0;exitDy=0;entryX=0;entryY=0.5;entryDx=0;entryDy=0;" parent="1" source="_c6HYb1iIJkz67qXLCZv-178" target="_c6HYb1iIJkz67qXLCZv-153" edge="1">
          <mxGeometry relative="1" as="geometry">
            <mxPoint x="1770" y="830.0000000000001" as="targetPoint" />
            <Array as="points">
              <mxPoint x="2130" y="1270" />
              <mxPoint x="2130" y="850.0000000000001" />
            </Array>
          </mxGeometry>
        </mxCell>
        <mxCell id="_c6HYb1iIJkz67qXLCZv-178" value="Output&lt;div&gt;Tampilkan Tiket Yang Tersedia&lt;/div&gt;" style="shape=parallelogram;perimeter=parallelogramPerimeter;whiteSpace=wrap;html=1;fixedSize=1;" parent="1" vertex="1">
          <mxGeometry x="2395.92" y="1240" width="149.38" height="60" as="geometry" />
        </mxCell>
        <mxCell id="wuQFaLoBgomVsM2xNMP--62" style="edgeStyle=orthogonalEdgeStyle;rounded=0;orthogonalLoop=1;jettySize=auto;html=1;exitX=0.5;exitY=1;exitDx=0;exitDy=0;entryX=0.5;entryY=0;entryDx=0;entryDy=0;" parent="1" source="_c6HYb1iIJkz67qXLCZv-180" target="wuQFaLoBgomVsM2xNMP--63" edge="1">
          <mxGeometry relative="1" as="geometry">
            <mxPoint x="3140.454545454545" y="1980" as="targetPoint" />
          </mxGeometry>
        </mxCell>
        <mxCell id="_c6HYb1iIJkz67qXLCZv-180" value="Input&lt;div&gt;ID tiket yang ingin di batalkan&lt;/div&gt;" style="shape=parallelogram;perimeter=parallelogramPerimeter;whiteSpace=wrap;html=1;fixedSize=1;" parent="1" vertex="1">
          <mxGeometry x="3044.91" y="1840" width="191.42" height="60" as="geometry" />
        </mxCell>
        <mxCell id="_c6HYb1iIJkz67qXLCZv-181" value="" style="edgeStyle=orthogonalEdgeStyle;rounded=0;orthogonalLoop=1;jettySize=auto;html=1;entryX=0;entryY=0.5;entryDx=0;entryDy=0;exitX=0.5;exitY=1;exitDx=0;exitDy=0;" parent="1" source="_c6HYb1iIJkz67qXLCZv-183" target="_c6HYb1iIJkz67qXLCZv-153" edge="1">
          <mxGeometry relative="1" as="geometry">
            <mxPoint x="3340.9953800000003" y="1850.6" as="targetPoint" />
            <Array as="points">
              <mxPoint x="3341" y="2100" />
              <mxPoint x="2130" y="2100" />
              <mxPoint x="2130" y="850.0000000000001" />
            </Array>
          </mxGeometry>
        </mxCell>
        <mxCell id="79mNWlb-mYU-TSoA2VN0-13" value="True" style="edgeLabel;html=1;align=center;verticalAlign=middle;resizable=0;points=[];" vertex="1" connectable="0" parent="_c6HYb1iIJkz67qXLCZv-181">
          <mxGeometry x="-0.9814" y="2" relative="1" as="geometry">
            <mxPoint x="-2" y="1" as="offset" />
          </mxGeometry>
        </mxCell>
        <mxCell id="_c6HYb1iIJkz67qXLCZv-182" value="" style="edgeStyle=orthogonalEdgeStyle;rounded=0;orthogonalLoop=1;jettySize=auto;html=1;" parent="1" source="_c6HYb1iIJkz67qXLCZv-183" target="_c6HYb1iIJkz67qXLCZv-188" edge="1">
          <mxGeometry relative="1" as="geometry" />
        </mxCell>
        <mxCell id="79mNWlb-mYU-TSoA2VN0-14" value="False" style="edgeLabel;html=1;align=center;verticalAlign=middle;resizable=0;points=[];" vertex="1" connectable="0" parent="_c6HYb1iIJkz67qXLCZv-182">
          <mxGeometry x="-0.6151" y="-1" relative="1" as="geometry">
            <mxPoint as="offset" />
          </mxGeometry>
        </mxCell>
        <mxCell id="_c6HYb1iIJkz67qXLCZv-183" value="&lt;div&gt;Elif&lt;/div&gt;&lt;div&gt;status == 5&lt;/div&gt;" style="rhombus;whiteSpace=wrap;html=1;" parent="1" vertex="1">
          <mxGeometry x="3290" y="1610" width="101.24" height="80" as="geometry" />
        </mxCell>
        <mxCell id="wuQFaLoBgomVsM2xNMP--3" style="edgeStyle=orthogonalEdgeStyle;rounded=0;orthogonalLoop=1;jettySize=auto;html=1;exitX=0.5;exitY=1;exitDx=0;exitDy=0;entryX=0.5;entryY=0;entryDx=0;entryDy=0;" parent="1" source="_c6HYb1iIJkz67qXLCZv-188" target="_c6HYb1iIJkz67qXLCZv-201" edge="1">
          <mxGeometry relative="1" as="geometry" />
        </mxCell>
        <mxCell id="79mNWlb-mYU-TSoA2VN0-53" value="True" style="edgeLabel;html=1;align=center;verticalAlign=middle;resizable=0;points=[];" vertex="1" connectable="0" parent="wuQFaLoBgomVsM2xNMP--3">
          <mxGeometry x="-0.5" y="-2" relative="1" as="geometry">
            <mxPoint as="offset" />
          </mxGeometry>
        </mxCell>
        <mxCell id="_c6HYb1iIJkz67qXLCZv-188" value="&lt;div&gt;Else&lt;/div&gt;" style="rhombus;whiteSpace=wrap;html=1;" parent="1" vertex="1">
          <mxGeometry x="3454.07" y="1710" width="101.24" height="80" as="geometry" />
        </mxCell>
        <mxCell id="_c6HYb1iIJkz67qXLCZv-195" value="" style="endArrow=classic;html=1;rounded=0;exitX=0.5;exitY=1;exitDx=0;exitDy=0;entryX=0.5;entryY=0;entryDx=0;entryDy=0;" parent="1" source="_c6HYb1iIJkz67qXLCZv-153" target="_c6HYb1iIJkz67qXLCZv-155" edge="1">
          <mxGeometry width="50" height="50" relative="1" as="geometry">
            <mxPoint x="2200" y="1010.0000000000001" as="sourcePoint" />
            <mxPoint x="2250" y="960.0000000000001" as="targetPoint" />
          </mxGeometry>
        </mxCell>
        <mxCell id="_c6HYb1iIJkz67qXLCZv-199" value="Output&lt;div&gt;Tampilkan Tiket Yang Sudah Dibeli&lt;/div&gt;" style="shape=parallelogram;perimeter=parallelogramPerimeter;whiteSpace=wrap;html=1;fixedSize=1;" parent="1" vertex="1">
          <mxGeometry x="3065.93" y="1720" width="149.38" height="60" as="geometry" />
        </mxCell>
        <mxCell id="wuQFaLoBgomVsM2xNMP--66" style="edgeStyle=orthogonalEdgeStyle;rounded=0;orthogonalLoop=1;jettySize=auto;html=1;exitX=0.5;exitY=1;exitDx=0;exitDy=0;entryX=0;entryY=0.5;entryDx=0;entryDy=0;" parent="1" source="_c6HYb1iIJkz67qXLCZv-201" target="_c6HYb1iIJkz67qXLCZv-153" edge="1">
          <mxGeometry relative="1" as="geometry">
            <mxPoint x="2320" y="920.0000000000001" as="targetPoint" />
            <Array as="points">
              <mxPoint x="3505" y="2195" />
              <mxPoint x="2130" y="2195" />
              <mxPoint x="2130" y="850.0000000000001" />
            </Array>
          </mxGeometry>
        </mxCell>
        <mxCell id="_c6HYb1iIJkz67qXLCZv-201" value="&lt;span style=&quot;background-color: initial; white-space: pre;&quot;&gt;Output&lt;/span&gt;&lt;div&gt;Input Tidak Valid, Silahkan Coba Lagi.&lt;/div&gt;" style="shape=parallelogram;perimeter=parallelogramPerimeter;whiteSpace=wrap;html=1;fixedSize=1;" parent="1" vertex="1">
          <mxGeometry x="3420" y="1890" width="169.38" height="70" as="geometry" />
        </mxCell>
        <mxCell id="_c6HYb1iIJkz67qXLCZv-205" value="" style="edgeStyle=orthogonalEdgeStyle;rounded=0;orthogonalLoop=1;jettySize=auto;html=1;" parent="1" source="_c6HYb1iIJkz67qXLCZv-202" target="_c6HYb1iIJkz67qXLCZv-204" edge="1">
          <mxGeometry relative="1" as="geometry" />
        </mxCell>
        <mxCell id="79mNWlb-mYU-TSoA2VN0-16" value="True" style="edgeLabel;html=1;align=center;verticalAlign=middle;resizable=0;points=[];" vertex="1" connectable="0" parent="_c6HYb1iIJkz67qXLCZv-205">
          <mxGeometry x="-0.5792" relative="1" as="geometry">
            <mxPoint as="offset" />
          </mxGeometry>
        </mxCell>
        <mxCell id="_c6HYb1iIJkz67qXLCZv-209" value="" style="edgeStyle=orthogonalEdgeStyle;rounded=0;orthogonalLoop=1;jettySize=auto;html=1;" parent="1" source="_c6HYb1iIJkz67qXLCZv-202" target="_c6HYb1iIJkz67qXLCZv-208" edge="1">
          <mxGeometry relative="1" as="geometry" />
        </mxCell>
        <mxCell id="79mNWlb-mYU-TSoA2VN0-15" value="False" style="edgeLabel;html=1;align=center;verticalAlign=middle;resizable=0;points=[];" vertex="1" connectable="0" parent="_c6HYb1iIJkz67qXLCZv-209">
          <mxGeometry x="-0.607" relative="1" as="geometry">
            <mxPoint as="offset" />
          </mxGeometry>
        </mxCell>
        <mxCell id="_c6HYb1iIJkz67qXLCZv-202" value="if&lt;div&gt;pilihan == 2&lt;/div&gt;" style="rhombus;whiteSpace=wrap;html=1;" parent="1" vertex="1">
          <mxGeometry x="3730" y="530" width="103.75" height="80" as="geometry" />
        </mxCell>
        <mxCell id="_c6HYb1iIJkz67qXLCZv-207" value="" style="edgeStyle=orthogonalEdgeStyle;rounded=0;orthogonalLoop=1;jettySize=auto;html=1;entryX=0;entryY=0.5;entryDx=0;entryDy=0;" parent="1" source="_c6HYb1iIJkz67qXLCZv-204" target="_c6HYb1iIJkz67qXLCZv-2" edge="1">
          <mxGeometry relative="1" as="geometry">
            <mxPoint x="-430" y="670" as="targetPoint" />
            <Array as="points">
              <mxPoint x="3782" y="2570" />
              <mxPoint x="-430" y="2570" />
              <mxPoint x="-430" y="160" />
            </Array>
          </mxGeometry>
        </mxCell>
        <mxCell id="_c6HYb1iIJkz67qXLCZv-204" value="Input&lt;div&gt;Username&lt;/div&gt;&lt;div&gt;Paswword&lt;/div&gt;" style="shape=parallelogram;perimeter=parallelogramPerimeter;whiteSpace=wrap;html=1;fixedSize=1;" parent="1" vertex="1">
          <mxGeometry x="3721.875" y="730" width="120" height="60" as="geometry" />
        </mxCell>
        <mxCell id="_c6HYb1iIJkz67qXLCZv-211" value="" style="edgeStyle=orthogonalEdgeStyle;rounded=0;orthogonalLoop=1;jettySize=auto;html=1;" parent="1" source="_c6HYb1iIJkz67qXLCZv-208" target="_c6HYb1iIJkz67qXLCZv-210" edge="1">
          <mxGeometry relative="1" as="geometry" />
        </mxCell>
        <mxCell id="79mNWlb-mYU-TSoA2VN0-56" value="True" style="edgeLabel;html=1;align=center;verticalAlign=middle;resizable=0;points=[];" vertex="1" connectable="0" parent="_c6HYb1iIJkz67qXLCZv-211">
          <mxGeometry x="-0.3207" y="1" relative="1" as="geometry">
            <mxPoint as="offset" />
          </mxGeometry>
        </mxCell>
        <mxCell id="79mNWlb-mYU-TSoA2VN0-19" value="" style="edgeStyle=orthogonalEdgeStyle;rounded=0;orthogonalLoop=1;jettySize=auto;html=1;" edge="1" parent="1" source="_c6HYb1iIJkz67qXLCZv-208" target="79mNWlb-mYU-TSoA2VN0-18">
          <mxGeometry relative="1" as="geometry" />
        </mxCell>
        <mxCell id="79mNWlb-mYU-TSoA2VN0-55" value="False" style="edgeLabel;html=1;align=center;verticalAlign=middle;resizable=0;points=[];" vertex="1" connectable="0" parent="79mNWlb-mYU-TSoA2VN0-19">
          <mxGeometry x="-0.7084" y="1" relative="1" as="geometry">
            <mxPoint as="offset" />
          </mxGeometry>
        </mxCell>
        <mxCell id="_c6HYb1iIJkz67qXLCZv-208" value="if&lt;div&gt;pilihan == 3&lt;/div&gt;" style="rhombus;whiteSpace=wrap;html=1;" parent="1" vertex="1">
          <mxGeometry x="3900" y="645" width="103.75" height="80" as="geometry" />
        </mxCell>
        <mxCell id="_c6HYb1iIJkz67qXLCZv-213" value="" style="edgeStyle=orthogonalEdgeStyle;rounded=0;orthogonalLoop=1;jettySize=auto;html=1;entryX=0.5;entryY=0;entryDx=0;entryDy=0;" parent="1" source="_c6HYb1iIJkz67qXLCZv-210" target="_c6HYb1iIJkz67qXLCZv-214" edge="1">
          <mxGeometry relative="1" as="geometry">
            <mxPoint x="410" y="2320" as="targetPoint" />
            <Array as="points">
              <mxPoint x="3952" y="2630" />
              <mxPoint x="300" y="2630" />
            </Array>
          </mxGeometry>
        </mxCell>
        <mxCell id="_c6HYb1iIJkz67qXLCZv-210" value="&lt;div&gt;Output&lt;/div&gt;Terimakasih sudah menggunakan aplikasi" style="shape=parallelogram;perimeter=parallelogramPerimeter;whiteSpace=wrap;html=1;fixedSize=1;" parent="1" vertex="1">
          <mxGeometry x="3867.81" y="830" width="168.13" height="65" as="geometry" />
        </mxCell>
        <mxCell id="_c6HYb1iIJkz67qXLCZv-214" value="End" style="ellipse;whiteSpace=wrap;html=1;" parent="1" vertex="1">
          <mxGeometry x="240" y="2730" width="120" height="80" as="geometry" />
        </mxCell>
        <mxCell id="kNvRD4Es3NejU3L5LjWM-6" value="" style="edgeStyle=orthogonalEdgeStyle;rounded=0;orthogonalLoop=1;jettySize=auto;html=1;" parent="1" source="kNvRD4Es3NejU3L5LjWM-3" target="kNvRD4Es3NejU3L5LjWM-5" edge="1">
          <mxGeometry relative="1" as="geometry" />
        </mxCell>
        <mxCell id="kNvRD4Es3NejU3L5LjWM-3" value="Output&lt;div&gt;Tampilkan stasiun yang tersedia&lt;/div&gt;" style="shape=parallelogram;perimeter=parallelogramPerimeter;whiteSpace=wrap;html=1;fixedSize=1;" parent="1" vertex="1">
          <mxGeometry x="-32.65" y="1360" width="165.31" height="60" as="geometry" />
        </mxCell>
        <mxCell id="kNvRD4Es3NejU3L5LjWM-8" value="" style="edgeStyle=orthogonalEdgeStyle;rounded=0;orthogonalLoop=1;jettySize=auto;html=1;" parent="1" source="kNvRD4Es3NejU3L5LjWM-5" target="kNvRD4Es3NejU3L5LjWM-7" edge="1">
          <mxGeometry relative="1" as="geometry" />
        </mxCell>
        <mxCell id="kNvRD4Es3NejU3L5LjWM-5" value="&lt;div&gt;Input&lt;/div&gt;&lt;div&gt;Masukkan stasiun yang dipilih&lt;/div&gt;" style="shape=parallelogram;perimeter=parallelogramPerimeter;whiteSpace=wrap;html=1;fixedSize=1;" parent="1" vertex="1">
          <mxGeometry x="-46.63" y="1460" width="193.27" height="60" as="geometry" />
        </mxCell>
        <mxCell id="wuQFaLoBgomVsM2xNMP--34" style="edgeStyle=orthogonalEdgeStyle;rounded=0;orthogonalLoop=1;jettySize=auto;html=1;entryX=0.5;entryY=0;entryDx=0;entryDy=0;exitX=0.5;exitY=1;exitDx=0;exitDy=0;" parent="1" source="kNvRD4Es3NejU3L5LjWM-7" target="wuQFaLoBgomVsM2xNMP--35" edge="1">
          <mxGeometry relative="1" as="geometry">
            <mxPoint x="50" y="1720" as="targetPoint" />
          </mxGeometry>
        </mxCell>
        <mxCell id="kNvRD4Es3NejU3L5LjWM-7" value="&lt;div&gt;Input&lt;/div&gt;&lt;div&gt;Rute awal:&lt;/div&gt;&lt;div&gt;Rute Akhir:&lt;/div&gt;&lt;div&gt;Harga:&lt;/div&gt;&lt;div&gt;Jumlah:&lt;/div&gt;" style="shape=parallelogram;perimeter=parallelogramPerimeter;whiteSpace=wrap;html=1;fixedSize=1;" parent="1" vertex="1">
          <mxGeometry x="-46.63" y="1550" width="193.27" height="80" as="geometry" />
        </mxCell>
        <mxCell id="kNvRD4Es3NejU3L5LjWM-14" value="" style="edgeStyle=orthogonalEdgeStyle;rounded=0;orthogonalLoop=1;jettySize=auto;html=1;" parent="1" source="kNvRD4Es3NejU3L5LjWM-11" target="kNvRD4Es3NejU3L5LjWM-13" edge="1">
          <mxGeometry relative="1" as="geometry" />
        </mxCell>
        <mxCell id="kNvRD4Es3NejU3L5LjWM-11" value="Output&lt;div&gt;Apa yang ingin di edit?&lt;/div&gt;&lt;div&gt;1. Stasiun&lt;/div&gt;&lt;div&gt;2. Rute&lt;/div&gt;&lt;div&gt;3. Harga&lt;/div&gt;&lt;div&gt;4. Jumlah Tiket&lt;/div&gt;&lt;div&gt;5. Batal&lt;/div&gt;" style="shape=parallelogram;perimeter=parallelogramPerimeter;whiteSpace=wrap;html=1;fixedSize=1;" parent="1" vertex="1">
          <mxGeometry x="177.48999999999998" y="1550" width="198.12" height="110" as="geometry" />
        </mxCell>
        <mxCell id="kNvRD4Es3NejU3L5LjWM-16" value="" style="edgeStyle=orthogonalEdgeStyle;rounded=0;orthogonalLoop=1;jettySize=auto;html=1;" parent="1" source="kNvRD4Es3NejU3L5LjWM-13" target="kNvRD4Es3NejU3L5LjWM-15" edge="1">
          <mxGeometry relative="1" as="geometry" />
        </mxCell>
        <mxCell id="kNvRD4Es3NejU3L5LjWM-13" value="Input&lt;div&gt;Pilih yang akan di edit&lt;/div&gt;" style="shape=parallelogram;perimeter=parallelogramPerimeter;whiteSpace=wrap;html=1;fixedSize=1;" parent="1" vertex="1">
          <mxGeometry x="199.85999999999999" y="1700" width="153.43" height="60" as="geometry" />
        </mxCell>
        <mxCell id="wuQFaLoBgomVsM2xNMP--5" value="" style="edgeStyle=orthogonalEdgeStyle;rounded=0;orthogonalLoop=1;jettySize=auto;html=1;" parent="1" source="kNvRD4Es3NejU3L5LjWM-15" target="wuQFaLoBgomVsM2xNMP--4" edge="1">
          <mxGeometry relative="1" as="geometry" />
        </mxCell>
        <mxCell id="79mNWlb-mYU-TSoA2VN0-30" value="True" style="edgeLabel;html=1;align=center;verticalAlign=middle;resizable=0;points=[];" vertex="1" connectable="0" parent="wuQFaLoBgomVsM2xNMP--5">
          <mxGeometry x="-0.675" y="2" relative="1" as="geometry">
            <mxPoint x="-2" y="8" as="offset" />
          </mxGeometry>
        </mxCell>
        <mxCell id="wuQFaLoBgomVsM2xNMP--7" value="" style="edgeStyle=orthogonalEdgeStyle;rounded=0;orthogonalLoop=1;jettySize=auto;html=1;entryX=0.5;entryY=0;entryDx=0;entryDy=0;exitX=1;exitY=0.5;exitDx=0;exitDy=0;" parent="1" source="kNvRD4Es3NejU3L5LjWM-15" target="wuQFaLoBgomVsM2xNMP--6" edge="1">
          <mxGeometry relative="1" as="geometry">
            <Array as="points">
              <mxPoint x="450" y="1830" />
            </Array>
          </mxGeometry>
        </mxCell>
        <mxCell id="79mNWlb-mYU-TSoA2VN0-31" value="False" style="edgeLabel;html=1;align=center;verticalAlign=middle;resizable=0;points=[];" vertex="1" connectable="0" parent="wuQFaLoBgomVsM2xNMP--7">
          <mxGeometry x="-0.6784" relative="1" as="geometry">
            <mxPoint x="14" as="offset" />
          </mxGeometry>
        </mxCell>
        <mxCell id="kNvRD4Es3NejU3L5LjWM-15" value="if&lt;div&gt;pilih_edit == 1&lt;/div&gt;" style="rhombus;whiteSpace=wrap;html=1;" parent="1" vertex="1">
          <mxGeometry x="209.13" y="1790" width="134.83" height="80" as="geometry" />
        </mxCell>
        <mxCell id="wuQFaLoBgomVsM2xNMP--25" style="edgeStyle=orthogonalEdgeStyle;rounded=0;orthogonalLoop=1;jettySize=auto;html=1;entryX=1;entryY=0.5;entryDx=0;entryDy=0;exitX=0.451;exitY=1.033;exitDx=0;exitDy=0;exitPerimeter=0;" parent="1" source="wuQFaLoBgomVsM2xNMP--4" target="wuQFaLoBgomVsM2xNMP--23" edge="1">
          <mxGeometry relative="1" as="geometry">
            <mxPoint x="277" y="2170" as="targetPoint" />
            <Array as="points">
              <mxPoint x="271" y="2070" />
              <mxPoint x="277" y="2070" />
              <mxPoint x="277" y="2220" />
            </Array>
          </mxGeometry>
        </mxCell>
        <mxCell id="wuQFaLoBgomVsM2xNMP--4" value="Input&lt;div&gt;Nama Stasiun&lt;/div&gt;" style="shape=parallelogram;perimeter=parallelogramPerimeter;whiteSpace=wrap;html=1;fixedSize=1;" parent="1" vertex="1">
          <mxGeometry x="216.54499999999993" y="2010" width="120" height="60" as="geometry" />
        </mxCell>
        <mxCell id="wuQFaLoBgomVsM2xNMP--9" value="" style="edgeStyle=orthogonalEdgeStyle;rounded=0;orthogonalLoop=1;jettySize=auto;html=1;" parent="1" source="wuQFaLoBgomVsM2xNMP--6" target="wuQFaLoBgomVsM2xNMP--8" edge="1">
          <mxGeometry relative="1" as="geometry" />
        </mxCell>
        <mxCell id="79mNWlb-mYU-TSoA2VN0-32" value="True" style="edgeLabel;html=1;align=center;verticalAlign=middle;resizable=0;points=[];" vertex="1" connectable="0" parent="wuQFaLoBgomVsM2xNMP--9">
          <mxGeometry x="-0.4625" y="1" relative="1" as="geometry">
            <mxPoint as="offset" />
          </mxGeometry>
        </mxCell>
        <mxCell id="wuQFaLoBgomVsM2xNMP--11" value="" style="edgeStyle=orthogonalEdgeStyle;rounded=0;orthogonalLoop=1;jettySize=auto;html=1;entryX=0.5;entryY=0;entryDx=0;entryDy=0;exitX=1;exitY=0.5;exitDx=0;exitDy=0;" parent="1" source="wuQFaLoBgomVsM2xNMP--6" target="wuQFaLoBgomVsM2xNMP--10" edge="1">
          <mxGeometry relative="1" as="geometry">
            <Array as="points">
              <mxPoint x="580" y="1900" />
            </Array>
          </mxGeometry>
        </mxCell>
        <mxCell id="79mNWlb-mYU-TSoA2VN0-33" value="False" style="edgeLabel;html=1;align=center;verticalAlign=middle;resizable=0;points=[];" vertex="1" connectable="0" parent="wuQFaLoBgomVsM2xNMP--11">
          <mxGeometry x="-0.4833" y="2" relative="1" as="geometry">
            <mxPoint as="offset" />
          </mxGeometry>
        </mxCell>
        <mxCell id="wuQFaLoBgomVsM2xNMP--6" value="&lt;div&gt;&lt;span style=&quot;background-color: initial;&quot;&gt;Elif&lt;/span&gt;&lt;/div&gt;&lt;div&gt;&lt;span style=&quot;background-color: initial;&quot;&gt;pilih_edit == 2&lt;/span&gt;&lt;br&gt;&lt;/div&gt;" style="rhombus;whiteSpace=wrap;html=1;" parent="1" vertex="1">
          <mxGeometry x="380" y="1860" width="140" height="80" as="geometry" />
        </mxCell>
        <mxCell id="wuQFaLoBgomVsM2xNMP--26" style="edgeStyle=orthogonalEdgeStyle;rounded=0;orthogonalLoop=1;jettySize=auto;html=1;exitX=0.5;exitY=1;exitDx=0;exitDy=0;entryX=1;entryY=0.5;entryDx=0;entryDy=0;" parent="1" source="wuQFaLoBgomVsM2xNMP--8" target="wuQFaLoBgomVsM2xNMP--23" edge="1">
          <mxGeometry relative="1" as="geometry">
            <mxPoint x="420.45454545454504" y="2170" as="targetPoint" />
            <Array as="points">
              <mxPoint x="450" y="2220" />
            </Array>
          </mxGeometry>
        </mxCell>
        <mxCell id="wuQFaLoBgomVsM2xNMP--8" value="&lt;div&gt;Input&lt;/div&gt;Rute Awal:&lt;div&gt;Rute Akhir&lt;/div&gt;" style="shape=parallelogram;perimeter=parallelogramPerimeter;whiteSpace=wrap;html=1;fixedSize=1;" parent="1" vertex="1">
          <mxGeometry x="390" y="2020" width="120" height="60" as="geometry" />
        </mxCell>
        <mxCell id="wuQFaLoBgomVsM2xNMP--13" value="" style="edgeStyle=orthogonalEdgeStyle;rounded=0;orthogonalLoop=1;jettySize=auto;html=1;" parent="1" source="wuQFaLoBgomVsM2xNMP--10" target="wuQFaLoBgomVsM2xNMP--12" edge="1">
          <mxGeometry relative="1" as="geometry" />
        </mxCell>
        <mxCell id="79mNWlb-mYU-TSoA2VN0-34" value="True" style="edgeLabel;html=1;align=center;verticalAlign=middle;resizable=0;points=[];" vertex="1" connectable="0" parent="wuQFaLoBgomVsM2xNMP--13">
          <mxGeometry x="-0.2438" relative="1" as="geometry">
            <mxPoint as="offset" />
          </mxGeometry>
        </mxCell>
        <mxCell id="wuQFaLoBgomVsM2xNMP--16" value="" style="edgeStyle=orthogonalEdgeStyle;rounded=0;orthogonalLoop=1;jettySize=auto;html=1;entryX=0.5;entryY=0;entryDx=0;entryDy=0;" parent="1" source="wuQFaLoBgomVsM2xNMP--10" target="wuQFaLoBgomVsM2xNMP--15" edge="1">
          <mxGeometry relative="1" as="geometry" />
        </mxCell>
        <mxCell id="79mNWlb-mYU-TSoA2VN0-35" value="False" style="edgeLabel;html=1;align=center;verticalAlign=middle;resizable=0;points=[];" vertex="1" connectable="0" parent="wuQFaLoBgomVsM2xNMP--16">
          <mxGeometry x="-0.4679" y="2" relative="1" as="geometry">
            <mxPoint as="offset" />
          </mxGeometry>
        </mxCell>
        <mxCell id="wuQFaLoBgomVsM2xNMP--10" value="&lt;div&gt;&lt;span style=&quot;background-color: initial;&quot;&gt;Elif&lt;/span&gt;&lt;/div&gt;&lt;div&gt;&lt;span style=&quot;background-color: initial;&quot;&gt;pilih_edit == 3&lt;/span&gt;&lt;br&gt;&lt;/div&gt;" style="rhombus;whiteSpace=wrap;html=1;" parent="1" vertex="1">
          <mxGeometry x="510" y="1940" width="140" height="80" as="geometry" />
        </mxCell>
        <mxCell id="wuQFaLoBgomVsM2xNMP--27" style="edgeStyle=orthogonalEdgeStyle;rounded=0;orthogonalLoop=1;jettySize=auto;html=1;exitX=0.5;exitY=1;exitDx=0;exitDy=0;entryX=1;entryY=0.5;entryDx=0;entryDy=0;" parent="1" source="wuQFaLoBgomVsM2xNMP--12" target="wuQFaLoBgomVsM2xNMP--23" edge="1">
          <mxGeometry relative="1" as="geometry">
            <mxPoint x="570" y="2170" as="targetPoint" />
            <Array as="points">
              <mxPoint x="580" y="2220" />
            </Array>
          </mxGeometry>
        </mxCell>
        <mxCell id="wuQFaLoBgomVsM2xNMP--12" value="&lt;div&gt;Input&lt;/div&gt;Harga Tiket" style="shape=parallelogram;perimeter=parallelogramPerimeter;whiteSpace=wrap;html=1;fixedSize=1;" parent="1" vertex="1">
          <mxGeometry x="520" y="2100" width="120" height="60" as="geometry" />
        </mxCell>
        <mxCell id="wuQFaLoBgomVsM2xNMP--18" value="" style="edgeStyle=orthogonalEdgeStyle;rounded=0;orthogonalLoop=1;jettySize=auto;html=1;" parent="1" source="wuQFaLoBgomVsM2xNMP--15" target="wuQFaLoBgomVsM2xNMP--17" edge="1">
          <mxGeometry relative="1" as="geometry" />
        </mxCell>
        <mxCell id="79mNWlb-mYU-TSoA2VN0-37" value="True" style="edgeLabel;html=1;align=center;verticalAlign=middle;resizable=0;points=[];" vertex="1" connectable="0" parent="wuQFaLoBgomVsM2xNMP--18">
          <mxGeometry x="-0.3262" y="4" relative="1" as="geometry">
            <mxPoint x="-4" as="offset" />
          </mxGeometry>
        </mxCell>
        <mxCell id="wuQFaLoBgomVsM2xNMP--20" value="" style="edgeStyle=orthogonalEdgeStyle;rounded=0;orthogonalLoop=1;jettySize=auto;html=1;" parent="1" source="wuQFaLoBgomVsM2xNMP--15" target="wuQFaLoBgomVsM2xNMP--19" edge="1">
          <mxGeometry relative="1" as="geometry" />
        </mxCell>
        <mxCell id="79mNWlb-mYU-TSoA2VN0-36" value="False" style="edgeLabel;html=1;align=center;verticalAlign=middle;resizable=0;points=[];" vertex="1" connectable="0" parent="wuQFaLoBgomVsM2xNMP--20">
          <mxGeometry x="-0.5524" y="-5" relative="1" as="geometry">
            <mxPoint y="-5" as="offset" />
          </mxGeometry>
        </mxCell>
        <mxCell id="wuQFaLoBgomVsM2xNMP--15" value="&lt;div&gt;&lt;span style=&quot;background-color: initial;&quot;&gt;Elif&lt;/span&gt;&lt;/div&gt;&lt;div&gt;&lt;span style=&quot;background-color: initial;&quot;&gt;pilih_edit == 4&lt;/span&gt;&lt;br&gt;&lt;/div&gt;" style="rhombus;whiteSpace=wrap;html=1;" parent="1" vertex="1">
          <mxGeometry x="660" y="2030" width="140" height="90" as="geometry" />
        </mxCell>
        <mxCell id="wuQFaLoBgomVsM2xNMP--22" style="edgeStyle=orthogonalEdgeStyle;rounded=0;orthogonalLoop=1;jettySize=auto;html=1;" parent="1" source="wuQFaLoBgomVsM2xNMP--17" target="wuQFaLoBgomVsM2xNMP--23" edge="1">
          <mxGeometry relative="1" as="geometry">
            <mxPoint x="120" y="2170" as="targetPoint" />
          </mxGeometry>
        </mxCell>
        <mxCell id="wuQFaLoBgomVsM2xNMP--17" value="&lt;div&gt;Input&lt;/div&gt;Jumlah Tiket" style="shape=parallelogram;perimeter=parallelogramPerimeter;whiteSpace=wrap;html=1;fixedSize=1;" parent="1" vertex="1">
          <mxGeometry x="670" y="2190" width="120" height="60" as="geometry" />
        </mxCell>
        <mxCell id="wuQFaLoBgomVsM2xNMP--21" style="edgeStyle=orthogonalEdgeStyle;rounded=0;orthogonalLoop=1;jettySize=auto;html=1;entryX=0;entryY=0.5;entryDx=0;entryDy=0;" parent="1" source="wuQFaLoBgomVsM2xNMP--19" target="_c6HYb1iIJkz67qXLCZv-49" edge="1">
          <mxGeometry relative="1" as="geometry">
            <mxPoint x="-310" y="1570" as="targetPoint" />
            <Array as="points">
              <mxPoint x="890" y="2290" />
              <mxPoint x="-300" y="2290" />
              <mxPoint x="-300" y="850" />
            </Array>
          </mxGeometry>
        </mxCell>
        <mxCell id="79mNWlb-mYU-TSoA2VN0-51" value="" style="edgeStyle=orthogonalEdgeStyle;rounded=0;orthogonalLoop=1;jettySize=auto;html=1;exitX=1;exitY=0.5;exitDx=0;exitDy=0;entryX=0.5;entryY=0;entryDx=0;entryDy=0;" edge="1" parent="1" source="wuQFaLoBgomVsM2xNMP--19" target="79mNWlb-mYU-TSoA2VN0-50">
          <mxGeometry relative="1" as="geometry">
            <Array as="points">
              <mxPoint x="1015" y="2205" />
            </Array>
          </mxGeometry>
        </mxCell>
        <mxCell id="wuQFaLoBgomVsM2xNMP--19" value="&lt;div&gt;&lt;span style=&quot;background-color: initial;&quot;&gt;Elif&lt;/span&gt;&lt;/div&gt;&lt;div&gt;&lt;span style=&quot;background-color: initial;&quot;&gt;pilih_edit == 5&lt;/span&gt;&lt;br&gt;&lt;/div&gt;" style="rhombus;whiteSpace=wrap;html=1;" parent="1" vertex="1">
          <mxGeometry x="820" y="2160" width="140" height="90" as="geometry" />
        </mxCell>
        <mxCell id="wuQFaLoBgomVsM2xNMP--24" style="edgeStyle=orthogonalEdgeStyle;rounded=0;orthogonalLoop=1;jettySize=auto;html=1;exitX=0;exitY=0.5;exitDx=0;exitDy=0;entryX=0;entryY=0.5;entryDx=0;entryDy=0;" parent="1" source="wuQFaLoBgomVsM2xNMP--23" target="_c6HYb1iIJkz67qXLCZv-49" edge="1">
          <mxGeometry relative="1" as="geometry">
            <mxPoint x="-175" y="850" as="targetPoint" />
            <Array as="points">
              <mxPoint x="-300" y="2220" />
              <mxPoint x="-300" y="850" />
            </Array>
          </mxGeometry>
        </mxCell>
        <mxCell id="wuQFaLoBgomVsM2xNMP--23" value="Output&lt;div&gt;Tiket Berhasil Di Edit&lt;/div&gt;" style="shape=parallelogram;perimeter=parallelogramPerimeter;whiteSpace=wrap;html=1;fixedSize=1;" parent="1" vertex="1">
          <mxGeometry x="-59.06" y="2190" width="170" height="60" as="geometry" />
        </mxCell>
        <mxCell id="wuQFaLoBgomVsM2xNMP--32" style="edgeStyle=orthogonalEdgeStyle;rounded=0;orthogonalLoop=1;jettySize=auto;html=1;entryX=0;entryY=0.5;entryDx=0;entryDy=0;" parent="1" source="wuQFaLoBgomVsM2xNMP--31" target="_c6HYb1iIJkz67qXLCZv-49" edge="1">
          <mxGeometry relative="1" as="geometry">
            <mxPoint x="-260" y="1250" as="targetPoint" />
            <Array as="points">
              <mxPoint x="-300" y="2340" />
              <mxPoint x="-300" y="850" />
            </Array>
          </mxGeometry>
        </mxCell>
        <mxCell id="wuQFaLoBgomVsM2xNMP--31" value="&lt;div&gt;Output&lt;/div&gt;Tiket Berhasil Di Hapus" style="shape=parallelogram;perimeter=parallelogramPerimeter;whiteSpace=wrap;html=1;fixedSize=1;" parent="1" vertex="1">
          <mxGeometry x="997.96" y="2100" width="180" height="60" as="geometry" />
        </mxCell>
        <mxCell id="wuQFaLoBgomVsM2xNMP--36" style="edgeStyle=orthogonalEdgeStyle;rounded=0;orthogonalLoop=1;jettySize=auto;html=1;entryX=0;entryY=0.5;entryDx=0;entryDy=0;exitX=0;exitY=0.5;exitDx=0;exitDy=0;" parent="1" source="wuQFaLoBgomVsM2xNMP--35" target="_c6HYb1iIJkz67qXLCZv-49" edge="1">
          <mxGeometry relative="1" as="geometry">
            <mxPoint x="-300" y="1750" as="targetPoint" />
            <Array as="points">
              <mxPoint x="-300" y="1705" />
              <mxPoint x="-300" y="850" />
            </Array>
          </mxGeometry>
        </mxCell>
        <mxCell id="wuQFaLoBgomVsM2xNMP--35" value="Output&lt;div&gt;Tiket Berhasil di tambahkan&lt;/div&gt;" style="shape=parallelogram;perimeter=parallelogramPerimeter;whiteSpace=wrap;html=1;fixedSize=1;" parent="1" vertex="1">
          <mxGeometry x="-44.690000000000005" y="1675" width="189.38" height="60" as="geometry" />
        </mxCell>
        <mxCell id="wuQFaLoBgomVsM2xNMP--39" style="edgeStyle=orthogonalEdgeStyle;rounded=0;orthogonalLoop=1;jettySize=auto;html=1;exitX=0.5;exitY=1;exitDx=0;exitDy=0;entryX=0.5;entryY=0;entryDx=0;entryDy=0;" parent="1" source="wuQFaLoBgomVsM2xNMP--37" target="kNvRD4Es3NejU3L5LjWM-11" edge="1">
          <mxGeometry relative="1" as="geometry" />
        </mxCell>
        <mxCell id="wuQFaLoBgomVsM2xNMP--37" value="Input&lt;div&gt;Masukkan ID tiket yang ingin di edit&lt;/div&gt;" style="shape=parallelogram;perimeter=parallelogramPerimeter;whiteSpace=wrap;html=1;fixedSize=1;" parent="1" vertex="1">
          <mxGeometry x="201.26" y="1460" width="150" height="60" as="geometry" />
        </mxCell>
        <mxCell id="wuQFaLoBgomVsM2xNMP--48" value="" style="edgeStyle=orthogonalEdgeStyle;rounded=0;orthogonalLoop=1;jettySize=auto;html=1;" parent="1" source="wuQFaLoBgomVsM2xNMP--43" target="wuQFaLoBgomVsM2xNMP--47" edge="1">
          <mxGeometry relative="1" as="geometry" />
        </mxCell>
        <mxCell id="wuQFaLoBgomVsM2xNMP--43" value="Output&lt;div&gt;Apakah yakin ingin menghapus?&lt;/div&gt;&lt;div&gt;1. ya&lt;/div&gt;&lt;div&gt;2. tidak&lt;/div&gt;" style="shape=parallelogram;perimeter=parallelogramPerimeter;whiteSpace=wrap;html=1;fixedSize=1;" parent="1" vertex="1">
          <mxGeometry x="982.96" y="1890" width="210" height="60" as="geometry" />
        </mxCell>
        <mxCell id="wuQFaLoBgomVsM2xNMP--50" value="" style="edgeStyle=orthogonalEdgeStyle;rounded=0;orthogonalLoop=1;jettySize=auto;html=1;entryX=0.5;entryY=0;entryDx=0;entryDy=0;" parent="1" source="wuQFaLoBgomVsM2xNMP--47" target="wuQFaLoBgomVsM2xNMP--31" edge="1">
          <mxGeometry relative="1" as="geometry">
            <mxPoint x="1087.9649999999997" y="2090" as="targetPoint" />
          </mxGeometry>
        </mxCell>
        <mxCell id="79mNWlb-mYU-TSoA2VN0-46" value="True" style="edgeLabel;html=1;align=center;verticalAlign=middle;resizable=0;points=[];" vertex="1" connectable="0" parent="wuQFaLoBgomVsM2xNMP--50">
          <mxGeometry x="-0.355" relative="1" as="geometry">
            <mxPoint as="offset" />
          </mxGeometry>
        </mxCell>
        <mxCell id="wuQFaLoBgomVsM2xNMP--52" value="" style="edgeStyle=orthogonalEdgeStyle;rounded=0;orthogonalLoop=1;jettySize=auto;html=1;" parent="1" source="wuQFaLoBgomVsM2xNMP--47" target="wuQFaLoBgomVsM2xNMP--51" edge="1">
          <mxGeometry relative="1" as="geometry" />
        </mxCell>
        <mxCell id="79mNWlb-mYU-TSoA2VN0-45" value="False" style="edgeLabel;html=1;align=center;verticalAlign=middle;resizable=0;points=[];" vertex="1" connectable="0" parent="wuQFaLoBgomVsM2xNMP--52">
          <mxGeometry x="-0.6241" y="-3" relative="1" as="geometry">
            <mxPoint x="-1" as="offset" />
          </mxGeometry>
        </mxCell>
        <mxCell id="wuQFaLoBgomVsM2xNMP--47" value="If&lt;div&gt;yakin == 1&lt;/div&gt;" style="rhombus;whiteSpace=wrap;html=1;" parent="1" vertex="1">
          <mxGeometry x="1033.99" y="1980" width="107.95" height="70" as="geometry" />
        </mxCell>
        <mxCell id="wuQFaLoBgomVsM2xNMP--54" value="" style="edgeStyle=orthogonalEdgeStyle;rounded=0;orthogonalLoop=1;jettySize=auto;html=1;" parent="1" source="wuQFaLoBgomVsM2xNMP--51" target="wuQFaLoBgomVsM2xNMP--53" edge="1">
          <mxGeometry relative="1" as="geometry" />
        </mxCell>
        <mxCell id="79mNWlb-mYU-TSoA2VN0-47" value="True" style="edgeLabel;html=1;align=center;verticalAlign=middle;resizable=0;points=[];" vertex="1" connectable="0" parent="wuQFaLoBgomVsM2xNMP--54">
          <mxGeometry x="-0.0495" y="1" relative="1" as="geometry">
            <mxPoint as="offset" />
          </mxGeometry>
        </mxCell>
        <mxCell id="wuQFaLoBgomVsM2xNMP--56" value="" style="edgeStyle=orthogonalEdgeStyle;rounded=0;orthogonalLoop=1;jettySize=auto;html=1;" parent="1" source="wuQFaLoBgomVsM2xNMP--51" target="wuQFaLoBgomVsM2xNMP--55" edge="1">
          <mxGeometry relative="1" as="geometry" />
        </mxCell>
        <mxCell id="79mNWlb-mYU-TSoA2VN0-48" value="False" style="edgeLabel;html=1;align=center;verticalAlign=middle;resizable=0;points=[];" vertex="1" connectable="0" parent="wuQFaLoBgomVsM2xNMP--56">
          <mxGeometry x="-0.4853" y="2" relative="1" as="geometry">
            <mxPoint as="offset" />
          </mxGeometry>
        </mxCell>
        <mxCell id="wuQFaLoBgomVsM2xNMP--51" value="Elif&lt;div&gt;yakin == 2&lt;/div&gt;" style="rhombus;whiteSpace=wrap;html=1;" parent="1" vertex="1">
          <mxGeometry x="1197" y="2060" width="107.95" height="70" as="geometry" />
        </mxCell>
        <mxCell id="wuQFaLoBgomVsM2xNMP--59" style="edgeStyle=orthogonalEdgeStyle;rounded=0;orthogonalLoop=1;jettySize=auto;html=1;entryX=0;entryY=0.5;entryDx=0;entryDy=0;" parent="1" source="wuQFaLoBgomVsM2xNMP--53" target="_c6HYb1iIJkz67qXLCZv-49" edge="1">
          <mxGeometry relative="1" as="geometry">
            <mxPoint x="1089.9999999999995" y="2340" as="targetPoint" />
            <Array as="points">
              <mxPoint x="1251" y="2340" />
              <mxPoint x="-300" y="2340" />
              <mxPoint x="-300" y="850" />
            </Array>
          </mxGeometry>
        </mxCell>
        <mxCell id="wuQFaLoBgomVsM2xNMP--53" value="Output&lt;div&gt;Anda memeilih untuk membatalkann penghapusan&lt;/div&gt;" style="shape=parallelogram;perimeter=parallelogramPerimeter;whiteSpace=wrap;html=1;fixedSize=1;" parent="1" vertex="1">
          <mxGeometry x="1173.46" y="2175" width="155.03" height="60" as="geometry" />
        </mxCell>
        <mxCell id="wuQFaLoBgomVsM2xNMP--58" value="" style="edgeStyle=orthogonalEdgeStyle;rounded=0;orthogonalLoop=1;jettySize=auto;html=1;" parent="1" source="wuQFaLoBgomVsM2xNMP--55" target="wuQFaLoBgomVsM2xNMP--57" edge="1">
          <mxGeometry relative="1" as="geometry" />
        </mxCell>
        <mxCell id="79mNWlb-mYU-TSoA2VN0-49" value="True" style="edgeLabel;html=1;align=center;verticalAlign=middle;resizable=0;points=[];" vertex="1" connectable="0" parent="wuQFaLoBgomVsM2xNMP--58">
          <mxGeometry x="-0.4044" relative="1" as="geometry">
            <mxPoint as="offset" />
          </mxGeometry>
        </mxCell>
        <mxCell id="wuQFaLoBgomVsM2xNMP--55" value="Else" style="rhombus;whiteSpace=wrap;html=1;" parent="1" vertex="1">
          <mxGeometry x="1360" y="2140" width="107.95" height="70" as="geometry" />
        </mxCell>
        <mxCell id="wuQFaLoBgomVsM2xNMP--60" style="edgeStyle=orthogonalEdgeStyle;rounded=0;orthogonalLoop=1;jettySize=auto;html=1;entryX=0;entryY=0.5;entryDx=0;entryDy=0;" parent="1" source="wuQFaLoBgomVsM2xNMP--57" target="_c6HYb1iIJkz67qXLCZv-49" edge="1">
          <mxGeometry relative="1" as="geometry">
            <mxPoint x="1250" y="2340" as="targetPoint" />
            <Array as="points">
              <mxPoint x="1414" y="2340" />
              <mxPoint x="-300" y="2340" />
              <mxPoint x="-300" y="850" />
            </Array>
          </mxGeometry>
        </mxCell>
        <mxCell id="wuQFaLoBgomVsM2xNMP--57" value="&lt;div&gt;Output&lt;/div&gt;Pilihan Tidak Valid" style="shape=parallelogram;perimeter=parallelogramPerimeter;whiteSpace=wrap;html=1;fixedSize=1;" parent="1" vertex="1">
          <mxGeometry x="1345.96" y="2250" width="136.02" height="60" as="geometry" />
        </mxCell>
        <mxCell id="wuQFaLoBgomVsM2xNMP--65" style="edgeStyle=orthogonalEdgeStyle;rounded=0;orthogonalLoop=1;jettySize=auto;html=1;exitX=0;exitY=0.5;exitDx=0;exitDy=0;entryX=0;entryY=0.5;entryDx=0;entryDy=0;" parent="1" source="wuQFaLoBgomVsM2xNMP--63" target="_c6HYb1iIJkz67qXLCZv-153" edge="1">
          <mxGeometry relative="1" as="geometry">
            <Array as="points">
              <mxPoint x="2130" y="2010" />
              <mxPoint x="2130" y="850.0000000000001" />
            </Array>
          </mxGeometry>
        </mxCell>
        <mxCell id="wuQFaLoBgomVsM2xNMP--63" value="Output&lt;div&gt;Tiket Berhasil Diibatalkan&lt;/div&gt;" style="shape=parallelogram;perimeter=parallelogramPerimeter;whiteSpace=wrap;html=1;fixedSize=1;" parent="1" vertex="1">
          <mxGeometry x="3050.93" y="1980" width="179.38" height="60" as="geometry" />
        </mxCell>
        <mxCell id="79mNWlb-mYU-TSoA2VN0-21" value="" style="edgeStyle=orthogonalEdgeStyle;rounded=0;orthogonalLoop=1;jettySize=auto;html=1;" edge="1" parent="1" source="79mNWlb-mYU-TSoA2VN0-18" target="79mNWlb-mYU-TSoA2VN0-20">
          <mxGeometry relative="1" as="geometry" />
        </mxCell>
        <mxCell id="79mNWlb-mYU-TSoA2VN0-54" value="True" style="edgeLabel;html=1;align=center;verticalAlign=middle;resizable=0;points=[];" vertex="1" connectable="0" parent="79mNWlb-mYU-TSoA2VN0-21">
          <mxGeometry x="-0.5071" y="1" relative="1" as="geometry">
            <mxPoint y="1" as="offset" />
          </mxGeometry>
        </mxCell>
        <mxCell id="79mNWlb-mYU-TSoA2VN0-18" value="Else" style="rhombus;whiteSpace=wrap;html=1;" vertex="1" parent="1">
          <mxGeometry x="4100" y="780" width="103.75" height="80" as="geometry" />
        </mxCell>
        <mxCell id="79mNWlb-mYU-TSoA2VN0-22" style="edgeStyle=orthogonalEdgeStyle;rounded=0;orthogonalLoop=1;jettySize=auto;html=1;exitX=0.5;exitY=1;exitDx=0;exitDy=0;entryX=0;entryY=0.5;entryDx=0;entryDy=0;" edge="1" parent="1" source="79mNWlb-mYU-TSoA2VN0-20" target="_c6HYb1iIJkz67qXLCZv-2">
          <mxGeometry relative="1" as="geometry">
            <mxPoint x="-290" y="-643.3333333333334" as="targetPoint" />
            <Array as="points">
              <mxPoint x="4152" y="2880" />
              <mxPoint x="-430" y="2880" />
              <mxPoint x="-430" y="160" />
            </Array>
          </mxGeometry>
        </mxCell>
        <mxCell id="79mNWlb-mYU-TSoA2VN0-20" value="Output&lt;div&gt;Input Tidak Valid&lt;/div&gt;" style="shape=parallelogram;perimeter=parallelogramPerimeter;whiteSpace=wrap;html=1;fixedSize=1;" vertex="1" parent="1">
          <mxGeometry x="4091.875" y="950" width="120" height="60" as="geometry" />
        </mxCell>
        <mxCell id="79mNWlb-mYU-TSoA2VN0-52" style="edgeStyle=orthogonalEdgeStyle;rounded=0;orthogonalLoop=1;jettySize=auto;html=1;exitX=0;exitY=0.5;exitDx=0;exitDy=0;" edge="1" parent="1" source="79mNWlb-mYU-TSoA2VN0-50">
          <mxGeometry relative="1" as="geometry">
            <mxPoint x="890" y="2290" as="targetPoint" />
            <Array as="points">
              <mxPoint x="960" y="2290" />
              <mxPoint x="926" y="2290" />
              <mxPoint x="926" y="2291" />
            </Array>
          </mxGeometry>
        </mxCell>
        <mxCell id="79mNWlb-mYU-TSoA2VN0-50" value="&lt;div&gt;Else&lt;/div&gt;" style="rhombus;whiteSpace=wrap;html=1;" vertex="1" parent="1">
          <mxGeometry x="960" y="2235" width="110" height="60" as="geometry" />
        </mxCell>
      </root>
    </mxGraphModel>
  </diagram>
</mxfile>
